<svg width="24" height="24" viewBox="0 0 24 24" fill="none" xmlns="http://www.w3.org/2000/svg">
<path d="M7.785 3.30836C7.6039 3.224 7.38178 3.20266 6.32595 3.20266C5.55108 3.20266 5.04842 3.20402 4.66633 3.24586C4.30655 3.28526 4.15503 3.35211 4.05577 3.42092C3.81547 3.58752 3.5906 3.85344 3.42965 4.21172C3.33971 4.41195 3.27289 4.69081 3.23698 5.19683C3.20057 5.70988 3.2 6.37116 3.2 7.3211V10.4697C3.2 12.9207 3.20135 14.6797 3.34616 16.0177C3.48985 17.3455 3.76288 18.1106 4.19883 18.6522C4.61031 19.1634 5.15176 19.459 6.1292 19.6223C7.15995 19.7944 8.5304 19.7976 10.5193 19.7976H11.5561C12.0946 19.7976 12.5311 20.2347 12.5311 20.7738C12.5311 21.3129 12.0946 21.75 11.5561 21.75H10.4332C8.55159 21.75 7.01783 21.75 5.80834 21.548C4.52712 21.334 3.48373 20.8751 2.68053 19.8773C1.9018 18.9099 1.56749 17.7062 1.40751 16.228C1.24998 14.7725 1.24999 12.9077 1.25 10.5302V7.28462C1.24999 6.37973 1.24999 5.64892 1.29188 5.05848C1.33484 4.45309 1.42574 3.91291 1.65124 3.41091C1.94002 2.76806 2.3801 2.20791 2.94567 1.81581C3.41168 1.49274 3.91944 1.36365 4.45431 1.30508C4.955 1.25025 5.77487 1.25012 6.485 1.25015C7.29125 1.24894 7.98437 1.24789 8.60763 1.53824C9.33078 1.87513 9.79993 2.43674 10.1323 2.9982C10.422 3.4874 10.6449 4.04472 10.8361 4.52279L11.1776 5.37194H15.4938C16.3172 5.3719 17.0246 5.37186 17.6013 5.44474C18.2213 5.52309 18.7983 5.69625 19.3059 6.11759C19.6821 6.42982 19.9927 6.8205 20.2286 7.25911C20.6299 8.00529 20.7194 8.87747 20.7496 9.92641C20.7651 10.4653 20.3413 10.9147 19.8031 10.9303C19.2648 10.9458 18.8159 10.5215 18.8004 9.98267C18.7706 8.94681 18.6758 8.48987 18.5117 8.18478C18.3845 7.94833 18.2286 7.75941 18.0613 7.62057C17.9413 7.52095 17.7677 7.43362 17.3571 7.38173C16.9169 7.3261 16.3337 7.32429 15.435 7.32429H7.10403C6.56555 7.32429 6.12903 6.88724 6.12903 6.34812C6.12903 5.80899 6.56555 5.37194 7.10403 5.37194H9.07528C8.87161 4.86457 8.6633 4.34569 8.45492 3.99375C8.23849 3.6282 8.02646 3.42084 7.785 3.30836Z" fill="#227A5F"/>
<path d="M17.3112 9.25616C18.4993 9.25613 19.4723 9.25611 20.2219 9.36333C21.0012 9.4748 21.6956 9.72145 22.178 10.3435C22.9349 11.3196 22.8068 12.5253 22.5484 13.4745C22.3712 14.1253 21.8122 15.4779 21.5792 16.0325C21.1387 17.2061 20.7894 18.1367 20.4353 18.8626C20.0717 19.608 19.6753 20.1982 19.109 20.6602C18.262 21.3513 17.2532 21.6039 16.304 21.6973C15.6191 21.7646 14.8941 21.7521 14.2529 21.7411L9.87794 21.7335C8.15647 21.7335 6.78588 21.7335 5.73406 21.5895C4.65546 21.4417 3.7619 21.1251 3.12679 20.3689C2.0367 19.071 2.13865 17.439 2.49738 16.0485C2.74524 15.0878 3.16552 14.0815 3.51236 13.251C3.71801 12.7031 4.28236 11.2748 4.4577 10.9116C4.64193 10.5299 4.85595 10.1951 5.17501 9.92157C5.67283 9.4948 6.25423 9.34205 6.76747 9.28478C7.14566 9.24258 7.55281 9.24854 7.88558 9.2534L17.3112 9.25616Z" fill="#227A5F"/>
</svg>
