<svg width="878" height="720" viewBox="0 0 878 720" fill="none" xmlns="http://www.w3.org/2000/svg">
<path fill-rule="evenodd" clip-rule="evenodd" d="M265.398 282.467C246.5 269.725 231.169 249.313 222.403 214.854C208.502 160.217 169.01 126.729 125.196 107.059C81.3714 87.3848 33.2933 81.5723 2.41559 82.2632L2.38785 80.8508C33.43 80.1562 81.7242 85.993 125.777 105.77C169.841 125.552 209.732 159.317 223.772 214.502C232.468 248.682 247.623 268.776 266.19 281.295C284.787 293.834 306.875 298.824 329.556 302.652C333.66 303.344 337.784 303.998 341.909 304.653C383.27 311.213 424.779 317.797 447.628 363.412C460.174 388.456 462.37 415.719 461.736 443.111C461.493 453.655 460.829 464.237 460.171 474.721C459.974 477.852 459.779 480.974 459.595 484.085C458.794 497.62 458.217 510.934 458.79 523.796C459.935 549.511 465.67 573.349 483.333 593.415C501.006 613.491 530.704 629.887 579.98 640.52C678.748 661.834 746.455 691.685 788.879 721.696C810.091 736.701 825.001 751.759 834.307 765.829C843.61 779.893 847.339 793.015 846.097 804.117L844.693 803.964C845.887 793.295 842.316 780.502 833.128 766.61C823.943 752.724 809.173 737.784 788.061 722.85C745.838 692.981 678.326 663.189 579.678 641.901C530.246 631.234 500.22 614.739 482.272 594.35C464.314 573.95 458.531 549.747 457.379 523.862C456.803 510.923 457.383 497.548 458.184 484.005C458.369 480.883 458.565 477.753 458.762 474.618C459.42 464.139 460.081 453.595 460.324 443.082C460.956 415.768 458.756 388.782 446.365 364.047C423.855 319.11 383.092 312.632 341.654 306.046C337.543 305.393 333.425 304.738 329.317 304.045C306.621 300.214 284.266 295.189 265.398 282.467Z" fill="#11362D"/>
<path fill-rule="evenodd" clip-rule="evenodd" d="M-59.0128 631.73C-84.4759 621.891 -105.147 603.539 -114.159 569.198C-128.431 514.814 -160.869 472.159 -197.4 443.205C-233.947 414.238 -274.523 399.035 -305.018 399.46L-305.057 398.06C-274.146 397.629 -233.26 413.007 -196.539 442.112C-159.802 471.23 -127.165 514.137 -112.804 568.861C-103.92 602.712 -83.6075 620.732 -58.5237 630.424C-33.3835 640.138 -3.44782 641.488 24.6367 641.903C28.0009 641.953 31.3392 641.99 34.6392 642.026C45.0918 642.14 55.1597 642.249 64.4489 642.766C76.6679 643.446 87.6111 644.833 96.3848 647.889C105.17 650.95 111.853 655.712 115.425 663.181C118.987 670.632 119.384 680.636 115.919 694.043C110.76 714.005 110.417 730.123 113.587 743.421C116.755 756.711 123.444 767.233 132.431 775.994C148.696 791.849 172.436 801.902 196.448 812.07C199.041 813.168 201.637 814.267 204.227 815.375C230.715 826.707 256.579 838.959 271.473 860.207C286.416 881.526 290.212 911.72 273.048 958.662C268.497 971.109 269.243 982.258 273.99 992.357C278.75 1002.48 287.558 1011.61 299.225 1019.92C322.568 1036.55 357.142 1049.78 392.823 1061.24C408.983 1066.43 425.351 1071.24 440.987 1075.84C442.604 1076.32 444.213 1076.79 445.813 1077.26C462.882 1082.29 478.945 1087.08 492.71 1091.82C506.466 1096.57 517.977 1101.29 525.919 1106.19C529.89 1108.64 533.01 1111.17 535.071 1113.8C537.14 1116.44 538.164 1119.22 537.861 1122.14L536.467 1121.98C536.723 1119.51 535.879 1117.08 533.973 1114.65C532.058 1112.21 529.095 1109.79 525.195 1107.38C517.395 1102.56 506.01 1097.89 492.27 1093.15C478.54 1088.41 462.508 1083.64 445.434 1078.61C443.833 1078.14 442.222 1077.66 440.604 1077.18C424.971 1072.58 408.588 1067.76 392.411 1062.57C356.728 1051.12 321.964 1037.83 298.422 1021.06C286.648 1012.67 277.627 1003.37 272.724 992.938C267.809 982.482 267.059 970.944 271.731 958.165C288.81 911.455 284.905 881.795 270.329 861C255.703 840.134 230.231 828.015 203.691 816.661C201.098 815.552 198.495 814.45 195.892 813.348C171.934 803.207 147.931 793.046 131.46 776.99C122.306 768.066 115.463 757.312 112.224 743.727C108.988 730.15 109.363 713.793 114.562 693.675C117.987 680.425 117.522 670.798 114.162 663.77C110.81 656.761 104.51 652.197 95.9404 649.211C87.3594 646.222 76.5772 644.843 64.3907 644.165C55.1361 643.65 45.113 643.54 34.6686 643.426C31.3628 643.39 28.0149 643.354 24.6357 643.304C-3.43113 642.888 -33.6063 641.547 -59.0128 631.73Z" fill="#227A5F"/>
<path fill-rule="evenodd" clip-rule="evenodd" d="M257.556 290.935C238.502 278.252 223.018 257.91 214.171 223.53C200.143 169.02 160.849 135.28 117.29 115.302C73.7212 95.3185 25.9546 89.1409 -4.82636 89.7352L-4.85834 88.3272C26.0928 87.7296 74.077 93.9343 117.874 114.022C161.681 134.114 201.368 168.133 215.535 223.184C224.309 257.28 239.614 277.303 258.334 289.763C277.085 302.244 299.331 307.187 322.101 310.979C326.143 311.652 330.202 312.288 334.26 312.924C375.81 319.438 417.289 325.941 439.332 371.674L439.335 371.679C451.312 397.071 453.755 424.189 453.691 451.241C453.668 461.074 453.312 470.915 452.96 480.664C452.828 484.321 452.696 487.965 452.583 491.591C452.167 504.892 451.995 517.959 452.931 530.595C454.804 555.859 461.105 579.345 478.706 599.433C496.315 619.53 525.31 636.312 572.746 648C668.254 670.305 735.844 700.267 778.984 730.118C800.554 745.042 816.032 759.953 825.828 773.885C835.618 787.809 839.768 800.812 838.562 811.891L837.162 811.734C838.318 801.118 834.354 788.456 824.676 774.692C815.004 760.935 799.663 746.135 778.185 731.275C735.233 701.555 667.822 671.649 572.427 649.37L572.419 649.368C524.821 637.641 495.518 620.753 477.648 600.359C459.77 579.955 453.412 556.128 451.527 530.694C450.584 517.981 450.759 504.853 451.175 491.542C451.289 487.902 451.421 484.249 451.553 480.587C451.905 470.847 452.259 461.041 452.283 451.233C452.347 424.252 449.904 397.386 438.062 372.28C416.357 327.25 375.646 320.854 334.01 314.312C329.968 313.677 325.917 313.041 321.875 312.368C299.09 308.574 276.579 303.596 257.556 290.935Z" fill="#11382E"/>
<path fill-rule="evenodd" clip-rule="evenodd" d="M248.213 300.983C228.905 288.453 213.328 268.109 204.766 233.433C191.19 178.453 152.05 144.499 108.453 124.513C64.844 104.521 16.842 98.5393 -14.2717 99.4803L-14.2884 98.0566C17.0041 97.1102 65.228 103.12 109.065 123.216C152.913 143.317 192.439 177.548 206.148 233.067C214.639 267.452 230.034 287.473 249.003 299.783C268.006 312.115 290.664 316.757 313.796 320.236C317.803 320.839 321.826 321.407 325.846 321.975C344.981 324.676 364.052 327.368 381.089 333.769C401.759 341.535 419.482 354.77 430.871 380.081L430.876 380.092C442.031 406.073 444.39 433.398 444.558 460.478C444.615 469.619 444.423 478.721 444.233 487.733C443.86 505.47 443.493 522.865 445.043 539.55C447.376 564.664 454.049 588.019 471.539 608.177C489.034 628.342 517.421 645.385 563.334 657.731C656.284 680.101 724.257 709.657 768.354 739.148C790.401 753.892 806.503 768.636 816.77 782.478C827.03 796.311 831.513 809.315 830.169 820.551L828.755 820.407C830.039 809.674 825.772 797.026 815.621 783.341C805.478 769.665 789.511 755.024 767.548 740.336C723.624 710.962 655.815 681.459 562.969 659.115L562.951 659.11C516.871 646.721 488.196 629.568 470.456 609.122C452.71 588.668 445.975 564.994 443.626 539.708C442.068 522.945 442.437 505.406 442.811 487.616C443.001 478.623 443.191 469.566 443.135 460.513C442.967 433.498 440.611 406.401 429.569 380.68C418.356 355.765 400.948 342.761 380.567 335.104C363.689 328.762 344.805 326.095 325.673 323.393C321.641 322.824 317.597 322.252 313.559 321.645C290.415 318.164 267.489 313.491 248.213 300.983Z" fill="#123A30"/>
<path fill-rule="evenodd" clip-rule="evenodd" d="M238.956 310.975C219.538 298.44 203.724 278.236 194.77 243.96C180.574 189.616 141.705 155.326 98.6521 134.725C55.5884 114.118 8.40329 107.242 -22.2462 107.708L-22.2839 106.306C8.54918 105.837 55.9559 112.746 99.2459 133.461C142.547 154.181 181.793 188.75 196.127 243.62C205.004 277.603 220.63 297.484 239.707 309.8C258.818 322.137 281.461 326.929 304.481 330.59C308.384 331.211 312.298 331.799 316.207 332.386C335.309 335.256 354.292 338.108 371.178 344.644C391.575 352.54 408.961 365.822 419.972 390.979L419.979 390.996L419.979 390.996C430.654 417.194 433.582 444.06 434.71 470.438C435.051 478.411 435.228 486.332 435.403 494.176C435.808 512.323 436.203 530.057 438.602 547.076C442.031 571.409 449.548 594.165 467.003 614.312C484.461 634.463 511.921 652.069 555.355 665.989C643.772 690.258 711.197 720.367 755.97 749.836C778.355 764.57 795.103 779.161 805.978 792.804C816.843 806.434 821.912 819.204 820.752 830.266L819.357 830.104C820.462 819.572 815.646 807.17 804.885 793.67C794.135 780.184 777.518 765.689 755.208 751.005C710.592 721.639 643.311 691.58 554.984 667.337L554.969 667.333L554.955 667.328C511.355 653.357 483.632 635.635 465.947 615.223C448.256 594.804 440.666 571.758 437.213 547.256C434.802 530.152 434.403 512.283 433.997 494.096C433.822 486.271 433.646 478.388 433.308 470.482C432.183 444.158 429.264 417.489 418.684 391.52C407.849 366.772 390.787 353.732 370.685 345.951C353.959 339.477 335.164 336.652 316.064 333.781C312.142 333.192 308.208 332.601 304.277 331.975C281.246 328.313 258.339 323.488 238.956 310.975Z" fill="#123C31"/>
<path fill-rule="evenodd" clip-rule="evenodd" d="M228.189 322.556C208.563 310.11 192.573 289.976 183.593 255.722C169.355 201.415 130.717 166.828 87.9146 145.911C45.1016 124.988 -1.81361 117.78 -32.4295 118.215L-32.4685 116.814C-1.66143 116.376 45.4779 123.621 88.5163 144.654C131.566 165.691 170.575 200.559 184.948 255.384C193.849 289.337 209.645 309.147 228.928 321.376C248.246 333.627 271.13 338.315 294.312 341.879C298.155 342.47 302.006 343.03 305.851 343.589C325.15 346.394 344.271 349.174 361.141 355.697C381.429 363.542 398.512 376.814 408.905 402.025L408.909 402.036L408.913 402.048C418.852 428.709 422.015 455.47 423.769 481.511C424.217 488.166 424.573 494.769 424.925 501.311C425.954 520.401 426.955 538.967 430.133 556.755C434.395 580.607 442.563 602.984 459.933 623.166C477.304 643.351 503.927 661.397 545.191 676.503C629.767 701.758 697.147 731.899 742.839 761.145C765.685 775.767 783.137 790.182 794.604 803.673C806.057 817.146 811.626 829.8 810.476 840.869L809.082 840.706C810.173 830.205 804.899 817.932 793.541 804.572C782.199 791.228 764.874 776.901 742.095 762.321C696.542 733.166 629.287 703.07 544.786 677.839L544.765 677.833L544.745 677.826C503.316 662.662 476.454 644.497 458.875 624.071C441.292 603.64 433.045 581.002 428.753 556.983C425.558 539.102 424.551 520.411 423.521 501.296C423.169 494.77 422.815 488.195 422.37 481.586C420.62 455.588 417.468 428.995 407.605 402.533C397.384 377.747 380.634 364.73 360.651 357.003C343.945 350.543 325.014 347.79 305.714 344.982C301.859 344.422 297.988 343.859 294.118 343.264C270.927 339.698 247.779 334.98 228.189 322.556Z" fill="#133E33"/>
<path fill-rule="evenodd" clip-rule="evenodd" d="M217.315 334.278C197.462 321.932 181.288 301.868 172.301 267.617C158.053 213.317 119.656 178.414 77.1049 157.178C34.5422 135.937 -12.1165 128.406 -42.7209 128.833L-42.7602 127.433C-11.9564 127.002 34.9294 134.573 77.7166 155.927C120.515 177.286 159.274 212.469 173.656 267.28C182.563 301.223 198.536 320.961 218.043 333.092C237.587 345.245 260.742 349.807 284.112 353.253C287.896 353.811 291.687 354.34 295.469 354.867C314.989 357.59 334.267 360.279 351.122 366.778C371.304 374.559 388.066 387.817 397.787 413.097L397.793 413.112L397.798 413.126C406.939 440.295 410.334 466.963 412.733 492.665C413.192 497.588 413.615 502.473 414.035 507.319C415.808 527.799 417.52 547.576 421.675 566.485C426.808 589.842 435.66 611.826 452.936 632.049C470.212 652.273 495.95 670.783 534.923 687.13C615.45 713.382 682.809 743.528 729.495 772.523C752.837 787.021 771.041 801.249 783.137 814.58C795.214 827.889 801.311 840.425 800.161 851.511L798.768 851.347C799.854 840.87 794.098 828.729 782.105 815.513C770.133 802.319 752.052 788.172 728.767 773.71C682.204 744.791 614.948 714.683 534.478 688.452L534.45 688.443L534.423 688.432C495.29 672.021 469.338 653.392 451.876 632.95C434.409 612.503 425.475 590.286 420.307 566.767C416.13 547.759 414.408 527.868 412.635 507.38C412.216 502.544 411.795 497.675 411.338 492.776C408.941 467.103 405.559 440.573 396.475 413.57C386.92 388.734 370.5 375.743 350.634 368.084C333.946 361.649 314.862 358.986 295.34 356.261C291.547 355.732 287.738 355.201 283.927 354.639C260.551 351.192 237.132 346.602 217.315 334.278Z" fill="#144035"/>
<path fill-rule="evenodd" clip-rule="evenodd" d="M204.69 347.84C184.479 335.719 168.176 315.662 159.588 280.994C145.973 226.036 107.807 190.826 65.2118 169.571C22.6056 148.31 -24.3713 141.045 -55.4423 141.959L-55.4603 140.536C-24.1776 139.616 23.0324 146.922 65.8636 168.295C108.706 189.674 147.228 225.163 160.969 280.63C169.478 314.979 185.578 334.706 205.436 346.616C225.333 358.549 249.068 362.677 272.948 365.676C276.724 366.15 280.504 366.596 284.273 367.041C304.288 369.402 323.986 371.727 340.978 378.036C361.234 385.557 377.697 398.755 386.44 424.383L386.446 424.4L386.451 424.417C394.433 452.447 397.706 479.398 400.435 505.107C400.706 507.661 400.972 510.203 401.236 512.732C403.635 535.676 405.926 557.581 411.143 578.415C416.931 601.527 426.316 623.295 443.435 643.622C460.551 663.947 485.429 682.867 522.254 700.24C599.219 726.782 667.115 756.357 715.135 784.799C739.145 799.021 758.217 812.978 770.969 826.153C783.695 839.301 790.259 851.808 788.916 863.114L787.504 862.969C788.768 852.327 782.596 840.228 769.939 827.152C757.31 814.103 738.356 800.22 714.395 786.027C666.479 757.646 598.665 728.102 521.734 701.574L521.698 701.562L521.664 701.546C484.687 684.105 459.621 665.07 442.341 644.55C425.057 624.026 415.59 602.052 409.763 578.783C404.52 557.846 402.219 535.838 399.822 512.911C399.558 510.379 399.292 507.835 399.02 505.281C396.293 479.585 393.03 452.744 385.087 424.846C376.499 399.688 360.388 386.769 340.463 379.371C323.644 373.126 304.146 370.824 284.126 368.46C280.347 368.014 276.55 367.566 272.748 367.088C248.863 364.088 224.862 359.938 204.69 347.84Z" fill="#144336"/>
<path fill-rule="evenodd" clip-rule="evenodd" d="M192.605 360.876C172.237 348.765 155.671 328.846 146.725 294.542C132.544 240.163 94.6745 204.572 52.6282 182.683C10.5703 160.787 -35.6091 152.635 -66.2554 153.115L-66.2924 151.712C-35.4278 151.229 10.9857 159.429 53.266 181.44C95.5579 203.457 133.772 239.327 148.083 294.202C156.944 328.182 173.299 347.772 193.313 359.672C213.367 371.595 237.158 375.838 260.983 378.98C264.659 379.464 268.337 379.923 272.003 380.38C292.034 382.877 311.677 385.326 328.506 391.742C348.482 399.357 364.546 412.578 372.759 438.05L372.765 438.07L372.771 438.089C379.815 465.219 383.643 490.696 387.259 514.771C387.419 515.832 387.578 516.89 387.736 517.946C391.501 542.966 395.179 566.454 402.187 588.783C416.178 633.363 443.462 673.386 511.449 711.433C583.206 739.759 650.599 769.835 699.498 798.242C723.949 812.447 743.809 826.254 757.281 839.238C770.717 852.188 777.962 864.476 776.787 875.628L775.391 875.466C776.493 865.012 769.699 853.145 756.312 840.243C742.961 827.376 723.214 813.636 698.802 799.454C649.986 771.094 582.653 741.042 510.902 712.719L510.857 712.702L510.816 712.679C442.509 674.463 414.96 634.155 400.848 589.189C393.802 566.741 390.111 543.147 386.349 518.14C386.191 517.09 386.033 516.038 385.874 514.984C382.256 490.903 378.44 465.497 371.417 438.448C363.355 413.462 347.652 400.537 328.018 393.052C311.364 386.702 291.922 384.277 271.884 381.778C268.209 381.319 264.515 380.859 260.814 380.371C236.987 377.229 212.934 372.962 192.605 360.876Z" fill="#154538"/>
<path fill-rule="evenodd" clip-rule="evenodd" d="M178.786 375.733C158.131 363.758 141.353 343.915 132.45 309.562C118.337 255.106 80.7558 219.141 38.9712 196.909C-2.82532 174.672 -48.7711 166.21 -79.4641 166.743L-79.4987 165.338C-48.577 164.8 -2.39301 173.314 39.6246 195.67C81.654 218.031 119.571 254.276 133.81 309.219C142.627 343.239 159.187 362.751 179.484 374.518C199.823 386.309 223.975 390.362 248.064 393.32C251.691 393.766 255.318 394.186 258.93 394.605C279.248 396.962 299.097 399.264 315.909 405.623C335.783 413.139 351.469 426.34 358.845 451.933L358.851 451.955L358.856 451.977C363.422 472.763 366.812 492.265 370.021 510.725C371.284 517.993 372.519 525.099 373.787 532.059C378.278 556.711 383.182 579.54 391.199 601.306C407.212 644.783 435.676 684.098 498.279 725.075C565.279 754.509 632.722 784.52 682.841 812.588C707.904 826.623 728.673 840.194 742.894 852.986C750.006 859.383 755.505 865.607 759.083 871.62C762.662 877.636 764.341 883.48 763.741 889.088L762.343 888.929C762.901 883.714 761.353 878.176 757.876 872.332C754.397 866.486 749.01 860.371 741.958 854.028C727.855 841.342 707.194 827.832 682.161 813.813C632.1 785.777 564.701 755.786 497.667 726.337L497.613 726.313L497.564 726.281C434.709 685.15 406.017 645.596 389.88 601.783C381.819 579.898 376.898 556.971 372.404 532.301C371.132 525.32 369.895 518.201 368.63 510.926C365.425 492.483 362.045 473.037 357.488 452.291C350.252 427.206 334.937 414.318 315.42 406.937C298.787 400.646 279.143 398.366 258.815 396.006C255.195 395.586 251.553 395.164 247.903 394.715C223.813 391.757 199.399 387.683 178.786 375.733Z" fill="#16483A"/>
<path fill-rule="evenodd" clip-rule="evenodd" d="M164.943 390.645C143.987 378.814 126.984 359.053 118.121 324.653C104.071 270.126 66.7957 233.764 25.2928 211.166C-16.2221 188.561 -61.9115 179.762 -92.6468 180.345L-92.6793 178.937C-61.7042 178.35 -15.7722 187.206 25.9623 209.93C67.7088 232.661 105.311 269.302 119.484 324.307C128.26 358.364 145.037 377.792 165.632 389.42C186.27 401.072 210.801 404.927 235.164 407.696C238.744 408.103 242.321 408.486 245.881 408.868C266.494 411.077 286.553 413.226 303.339 419.524C313.202 423.225 321.97 428.367 329.087 435.818C336.206 443.272 341.642 453.006 344.883 465.841L344.889 465.865L344.893 465.889C346.196 473.149 347.439 480.211 348.65 487.093C357.342 536.482 364.396 576.565 380.359 613.738C398.521 656.035 428.236 694.593 485.138 738.695C508.661 750.323 532.988 761.855 556.929 773.206C596.036 791.746 634.116 809.799 665.991 826.982C691.7 840.84 713.427 854.16 728.441 866.748C735.948 873.042 741.805 879.176 745.64 885.128C749.477 891.083 751.319 896.902 750.707 902.536L749.308 902.378C749.873 897.169 748.185 891.672 744.458 885.887C740.729 880.1 734.989 874.071 727.539 867.825C712.64 855.333 691.016 842.068 665.327 828.22C633.477 811.051 595.464 793.03 556.387 774.505C532.417 763.141 508.047 751.588 484.454 739.925L484.391 739.894L484.334 739.85C427.255 695.62 397.35 656.871 379.065 614.289C363.033 576.954 355.949 536.695 347.263 487.33C346.053 480.454 344.812 473.402 343.512 466.156C340.323 453.541 334.998 444.041 328.071 436.788C321.136 429.528 312.566 424.488 302.849 420.842C286.246 414.613 266.397 412.484 245.772 410.272C242.204 409.889 238.612 409.504 235.011 409.095C210.649 406.326 185.857 402.452 164.943 390.645Z" fill="#164B3D"/>
<path fill-rule="evenodd" clip-rule="evenodd" d="M151.45 405.228C130.207 393.517 112.957 373.854 104.046 339.497C89.922 285.041 52.9671 248.262 11.8205 225.216C-29.3384 202.163 -74.6369 192.886 -105.313 193.412L-105.347 192.007C-74.4212 191.477 -28.8762 200.817 12.5002 223.991C53.8889 247.173 91.1611 284.23 105.406 339.154C114.226 373.16 131.242 392.488 152.122 403.999C173.046 415.534 197.905 419.253 222.485 421.896C226.01 422.276 229.531 422.633 233.033 422.988C253.89 425.103 274.103 427.153 290.82 433.419C300.603 437.086 309.227 442.208 316.111 449.658C322.999 457.11 328.111 466.857 330.922 479.72L330.928 479.746L330.931 479.772C339.569 540.386 349.548 584.677 370.065 625.667C390.571 666.638 421.632 704.364 472.513 751.794C507.22 771.412 545.935 790.257 582.848 808.225C606.162 819.574 628.758 830.572 649.171 841.195C675.519 854.906 698.228 867.991 714.066 880.371C721.986 886.561 728.219 892.6 732.332 898.48C736.446 904.362 738.474 910.14 737.872 915.778L736.475 915.619C737.028 910.436 735.18 904.996 731.182 899.28C727.183 893.562 721.071 887.624 713.206 881.476C697.477 869.181 674.868 856.146 648.53 842.44C628.191 831.856 605.625 820.871 582.322 809.528C545.34 791.526 506.501 772.619 471.755 752.975L471.682 752.933L471.62 752.876C420.644 705.364 389.431 667.49 368.809 626.288C348.191 585.095 338.186 540.627 329.544 479.985C326.778 467.347 321.772 457.846 315.082 450.607C308.386 443.36 299.969 438.345 290.335 434.734C273.805 428.538 253.806 426.508 232.933 424.39C229.424 424.034 225.891 423.675 222.346 423.294C197.769 420.65 172.649 416.915 151.45 405.228Z" fill="#174E3F"/>
<path fill-rule="evenodd" clip-rule="evenodd" d="M134.799 423.102C113.216 411.556 95.7191 391.984 86.87 357.556C72.8448 302.992 36.2303 265.772 -4.61543 242.331C-45.4737 218.884 -90.5117 209.259 -121.256 209.862L-121.287 208.454C-90.2801 207.845 -44.9905 217.539 -3.9167 241.11C37.1696 264.688 74.0914 302.186 88.2344 357.209C96.9904 391.274 114.245 410.511 135.461 421.861C156.722 433.235 182.015 436.718 206.914 439.136C210.401 439.474 213.881 439.792 217.341 440.108C238.528 442.041 258.972 443.907 275.653 450.093C285.378 453.699 293.865 458.785 300.502 466.237C307.142 473.692 311.895 483.474 314.211 496.413L314.216 496.44L314.219 496.466C320.518 558.634 333.857 601.128 356.731 640.794C379.313 679.956 411.201 716.385 454.886 766.293L456.621 768.275C495.522 793.657 543.911 817.042 588.702 838.688C602.696 845.451 616.339 852.045 629.232 858.476C656.303 871.98 680.079 884.778 696.795 896.928C705.153 903.002 711.782 908.94 716.177 914.752C720.572 920.565 722.781 926.317 722.162 931.988L720.761 931.831C721.327 926.651 719.329 921.253 715.054 915.6C710.779 909.947 704.276 904.104 695.969 898.067C679.357 885.993 655.677 873.24 628.606 859.736C615.75 853.323 602.133 846.743 588.155 839.988C543.317 818.319 494.77 794.858 455.772 769.401L455.69 769.348L453.753 767.134C410.132 717.301 378.163 680.778 355.511 641.495C332.52 601.627 319.136 558.939 312.82 496.631C310.54 483.923 305.888 474.399 299.451 467.172C293.007 459.937 284.737 454.962 275.167 451.414C258.677 445.299 238.451 443.451 217.245 441.514C213.78 441.197 210.288 440.878 206.782 440.538C181.888 438.121 156.335 434.623 134.799 423.102Z" fill="#185141"/>
<path fill-rule="evenodd" clip-rule="evenodd" d="M118.207 440.945C96.2765 429.565 78.518 410.091 69.7082 375.616C55.7463 320.98 19.4893 283.297 -21.0227 259.424C-61.5476 235.544 -106.277 225.518 -137.062 226.171L-137.092 224.76C-106.03 224.102 -61.0441 234.203 -20.3061 258.209C20.4448 282.222 56.9986 320.182 71.0753 375.267C79.7897 409.368 97.2977 428.505 118.858 439.693C140.465 450.905 166.193 454.162 191.406 456.363C194.856 456.664 198.298 456.946 201.718 457.226C223.227 458.984 243.891 460.674 260.517 466.783C270.174 470.331 278.515 475.384 284.893 482.838C291.275 490.296 295.654 500.111 297.461 513.12L297.464 513.147L297.466 513.174C301.366 576.931 318.258 617.484 343.634 655.738C356.066 674.479 370.534 692.669 386.533 712.783L387.57 714.087C403.958 734.692 421.916 757.341 440.867 784.626C480.076 814.744 535.998 841.16 586.458 864.996C594.176 868.642 601.766 872.227 609.148 875.756C636.966 889.053 661.854 901.556 679.489 913.465C688.306 919.419 695.348 925.249 700.041 930.987C704.733 936.723 707.137 942.443 706.505 948.141L705.103 947.987C705.676 942.815 703.517 937.465 698.949 931.88C694.382 926.297 687.468 920.556 678.699 914.634C661.163 902.793 636.367 890.331 608.54 877.029C601.169 873.506 593.587 869.925 585.873 866.281C535.392 842.437 479.264 815.924 439.92 785.678L439.833 785.611L439.771 785.521C420.825 758.238 402.872 735.594 386.466 714.966L385.409 713.637C369.426 693.543 354.924 675.311 342.458 656.518C316.958 618.076 299.978 577.293 296.059 513.288C294.281 500.513 289.995 490.97 283.821 483.756C277.64 476.532 269.528 471.597 260.03 468.107C243.6 462.07 223.159 460.397 201.627 458.635C198.203 458.354 194.751 458.072 191.283 457.769C166.077 455.568 140.09 452.301 118.207 440.945Z" fill="#195544"/>
<path fill-rule="evenodd" clip-rule="evenodd" d="M101.568 458.869C79.2732 447.664 61.2399 428.294 52.4709 393.77C38.5745 339.06 2.69364 300.89 -37.4674 276.563C-77.6415 252.229 -122.045 241.781 -152.874 242.484L-152.901 241.071C-121.782 240.361 -77.1167 250.892 -36.7321 275.353C3.66561 299.823 39.8329 338.268 53.8407 393.417C62.5119 427.556 80.2854 446.588 102.206 457.606C124.177 468.649 150.36 471.667 175.903 473.641C179.321 473.905 182.729 474.15 186.114 474.394C207.955 475.967 228.842 477.471 245.402 483.497C254.99 486.985 263.177 492.003 269.285 499.462C275.395 506.923 279.382 516.775 280.656 529.858L280.658 529.884L280.659 529.911C282.046 595.342 302.658 633.846 330.662 670.616C338.233 680.558 346.356 690.384 354.79 700.586C377.532 728.096 402.537 758.344 425.109 800.993C444.619 819.071 471.218 835.548 500.112 850.781C525.943 864.399 553.572 877.004 579.564 888.862C582.686 890.287 585.785 891.7 588.854 893.104C617.455 906.182 643.508 918.373 662.105 930.027C671.402 935.853 678.879 941.57 683.883 947.228C688.885 952.882 691.493 958.566 690.85 964.295L689.445 964.142C690.025 958.979 687.7 953.679 682.823 948.167C677.95 942.657 670.605 937.024 661.352 931.225C642.848 919.63 616.883 907.477 588.263 894.39C585.194 892.986 582.095 891.573 578.971 890.147C552.984 878.292 525.318 865.67 499.45 852.032C470.477 836.758 443.713 820.186 424.058 801.95L423.971 801.869L423.915 801.764C401.402 759.196 376.51 729.085 353.773 701.581C345.318 691.354 337.162 681.488 329.536 671.475C301.406 634.539 280.646 595.759 279.247 529.973C277.992 517.127 274.088 507.562 268.19 500.359C262.285 493.149 254.338 488.254 244.915 484.825C228.555 478.873 207.897 477.383 186.029 475.806C182.641 475.562 179.224 475.315 175.789 475.05C150.255 473.077 123.814 470.05 101.568 458.869Z" fill="#1A5846"/>
<path fill-rule="evenodd" clip-rule="evenodd" d="M85.1719 476.574C62.5218 465.525 44.1972 446.269 35.4093 411.758C21.4838 357.07 -14.0123 318.401 -53.7724 293.565C-93.5458 268.72 -137.533 257.753 -168.334 258.435L-168.362 257.023C-137.257 256.334 -93.003 267.392 -53.0223 292.366C-13.0281 317.349 22.7436 356.291 36.778 411.406C45.4649 445.521 63.5195 464.439 85.7933 475.304C108.118 486.194 134.724 489.017 160.556 490.81C163.942 491.044 167.315 491.262 170.664 491.477C192.798 492.902 213.865 494.258 230.326 500.218C239.827 503.658 247.847 508.647 253.676 516.107C259.508 523.57 263.099 533.446 263.844 546.575L263.846 546.601L263.845 546.627C263.305 580.164 269.177 605.997 279.011 627.832C288.848 649.675 302.664 667.551 318.066 685.168C322.905 690.703 327.901 696.212 332.977 701.81C360.181 731.808 389.688 764.347 409.696 817.014C426.011 835.856 450.985 852.724 479.265 868.111C507.584 883.519 539.155 897.411 568.557 910.304L569.998 910.936C598.829 923.578 625.499 935.273 644.764 946.489C654.555 952.189 662.48 957.792 667.811 963.364C673.136 968.93 675.967 974.568 675.325 980.312L673.922 980.158C674.496 975.019 671.99 969.778 666.789 964.342C661.594 958.911 653.802 953.387 644.051 947.71C624.857 936.535 598.248 924.867 569.367 912.203L567.987 911.598C538.595 898.709 506.968 884.794 478.588 869.352C450.217 853.916 425.027 836.92 408.545 817.845L408.463 817.751L408.419 817.634C388.512 765.167 359.173 732.809 331.958 702.793C326.873 697.185 321.863 691.659 317.002 686.099C301.569 668.446 287.645 650.446 277.723 628.414C267.799 606.38 261.892 580.347 262.433 546.633C261.697 533.739 258.178 524.164 252.563 516.978C246.942 509.784 239.173 504.924 229.842 501.546C213.587 495.66 192.752 494.317 170.588 492.889C167.237 492.673 163.856 492.455 160.455 492.219C134.633 490.427 107.771 487.598 85.1719 476.574Z" fill="#1B5C49"/>
<path fill-rule="evenodd" clip-rule="evenodd" d="M66.853 496.294C43.9015 485.339 25.268 466.207 16.308 431.865C2.11091 377.451 -33.0163 338.294 -72.2858 312.852C-111.569 287.401 -154.943 275.709 -185.536 276.184L-185.574 274.781C-154.664 274.301 -111.018 286.094 -71.5317 311.677C-32.0315 337.269 3.3606 376.697 17.6657 431.525C26.5196 465.46 44.8719 484.254 67.4464 495.029C90.0727 505.829 116.979 508.593 142.972 510.341C146.314 510.565 149.641 510.773 152.943 510.979C175.253 512.373 196.385 513.692 212.676 519.641C222.054 523.065 229.886 528.041 235.437 535.49C240.99 542.941 244.21 552.799 244.482 565.898L244.483 565.922L244.482 565.946C242.873 600.1 249.242 625.659 260.188 646.859C271.142 668.075 286.699 684.966 303.548 701.769C306.573 704.786 309.639 707.799 312.727 710.834C344 741.569 377.469 774.462 392.523 834.855C405.57 854.435 428.821 871.736 456.402 887.353C484.016 902.989 515.882 916.89 546.001 929.686C549.468 931.158 552.912 932.617 556.324 934.061C582.532 945.158 606.844 955.453 625.035 965.359C635.314 970.957 643.688 976.457 649.357 981.94C655.017 987.414 658.096 992.988 657.494 998.709L656.098 998.547C656.633 993.468 653.927 988.302 648.387 982.943C642.857 977.594 634.617 972.168 624.374 966.59C606.249 956.719 582.009 946.455 555.786 935.351C552.376 933.907 548.932 932.449 545.464 930.976C515.349 918.182 483.414 904.253 455.721 888.572C428.042 872.9 404.514 855.431 391.289 835.52L391.221 835.418L391.191 835.299C376.252 775.233 343.031 742.579 311.74 711.821C308.655 708.789 305.59 705.776 302.562 702.756C285.698 685.938 270.004 668.916 258.943 647.492C247.875 626.057 241.464 600.256 243.079 565.888C242.807 553.021 239.648 543.476 234.315 536.32C228.977 529.157 221.41 524.319 212.207 520.958C196.126 515.086 175.229 513.779 152.885 512.381C149.582 512.174 146.248 511.966 142.894 511.74C116.912 509.994 89.7526 507.224 66.853 496.294Z" fill="#1B604C"/>
<path fill-rule="evenodd" clip-rule="evenodd" d="M46.902 517.729C23.4905 507.023 4.55025 488.006 -4.25362 453.495C-18.2023 398.817 -52.8801 359.086 -91.8052 333.184C-130.744 307.273 -173.878 295.238 -204.649 295.904L-204.678 294.493C-173.574 293.819 -130.161 305.964 -91.0221 332.009C-51.8691 358.062 -16.9375 398.062 -2.88576 453.144C5.81066 487.234 24.4588 505.913 47.4904 516.445C70.5753 527.002 98.0979 529.391 124.564 530.777C127.905 530.952 131.231 531.111 134.528 531.269C144.266 531.734 153.758 532.188 162.687 533.006C174.64 534.101 185.643 535.852 194.959 539.181C204.282 542.513 211.953 547.439 217.189 554.905C222.425 562.372 225.17 572.303 224.785 585.54L224.784 585.562L224.782 585.583C221.601 620.859 228.232 646.396 240.192 667.081C252.167 687.791 269.507 703.685 287.852 719.649C289.53 721.11 291.217 722.57 292.908 724.035C328.151 754.562 365.446 786.867 373.451 854.656C383.024 875.087 404.553 892.764 431.557 908.472C458.585 924.194 490.978 937.877 522.056 950.35C528.158 952.8 534.211 955.203 540.162 957.565C564.496 967.226 587.137 976.215 604.56 984.946C615.401 990.378 624.275 995.736 630.295 1001.13C636.301 1006.51 639.606 1012.05 638.962 1017.83L637.559 1017.68C638.126 1012.58 635.247 1007.46 629.353 1002.18C623.474 996.916 614.735 991.624 603.926 986.208C586.563 977.507 563.999 968.549 539.671 958.89C533.713 956.524 527.648 954.117 521.529 951.661C490.45 939.187 457.972 925.471 430.847 909.693C403.742 893.927 381.863 876.034 372.124 855.151L372.076 855.048L372.062 854.935C364.15 787.62 327.208 755.618 291.945 725.07C290.267 723.616 288.592 722.166 286.925 720.715C268.583 704.754 251.075 688.725 238.97 667.789C226.853 646.832 220.174 621.007 223.374 585.48C223.75 572.469 221.048 562.868 216.032 555.716C211.014 548.559 203.624 543.778 194.482 540.511C185.334 537.241 174.469 535.503 162.556 534.412C153.661 533.597 144.213 533.145 134.483 532.68C131.18 532.522 127.845 532.362 124.488 532.187C98.0353 530.802 70.2602 528.411 46.902 517.729Z" fill="#1C644F"/>
<path fill-rule="evenodd" clip-rule="evenodd" d="M27.3423 538.792C3.49334 528.303 -15.7714 509.412 -24.5097 474.825C-38.3533 420.031 -72.5788 379.719 -111.094 353.286C-149.624 326.844 -192.391 314.33 -223.233 315.078L-223.258 313.663C-192.066 312.907 -149.014 325.541 -110.289 352.118C-71.5485 378.704 -37.0803 419.283 -23.1375 474.47C-14.5092 508.621 4.45168 527.175 27.9189 537.495C51.4405 547.84 79.5183 549.927 106.39 551.025C109.729 551.162 113.051 551.283 116.342 551.403C126.272 551.766 135.928 552.118 144.974 552.849C157.021 553.821 168.05 555.466 177.287 558.721C186.532 561.979 194.027 566.865 198.94 574.343C203.854 581.821 206.128 591.802 205.105 605.136L205.104 605.155L205.102 605.173C200.412 641.488 207.392 666.922 220.451 687.025C233.532 707.164 252.742 722.004 272.655 737.082C273.251 737.533 273.847 737.984 274.444 738.436C293.766 753.057 313.579 768.051 328.697 788.41C344.288 809.409 354.87 836.089 354.889 873.922C360.877 895.229 380.587 913.327 406.95 929.179C433.324 945.037 466.202 958.556 498.219 970.754C506.683 973.978 515.089 977.111 523.297 980.17C546.112 988.673 567.404 996.609 584.19 1004.37C595.602 1009.64 604.988 1014.86 611.374 1020.16C617.738 1025.43 621.289 1030.92 620.627 1036.75L619.221 1036.6C619.799 1031.51 616.731 1026.44 610.467 1021.25C604.224 1016.07 594.972 1010.92 583.589 1005.65C566.856 997.919 545.642 990.012 522.846 981.516C514.627 978.453 506.202 975.313 497.708 972.077C465.686 959.877 432.706 946.321 406.215 930.393C379.752 914.481 359.61 896.112 353.5 874.218L353.474 874.125L353.474 874.028C353.473 836.442 342.981 810.029 327.559 789.259C312.563 769.063 292.892 754.177 273.53 739.524C272.952 739.087 272.374 738.649 271.796 738.212C251.91 723.155 232.498 708.178 219.262 687.802C206.005 667.393 198.972 641.62 203.696 605.019C204.699 591.904 202.448 582.266 197.756 575.126C193.062 567.982 185.866 563.248 176.809 560.057C167.744 556.862 156.859 555.229 144.852 554.259C135.838 553.532 126.228 553.181 116.306 552.819C113.009 552.699 109.678 552.577 106.323 552.44C79.4657 551.342 51.1368 549.256 27.3423 538.792Z" fill="#1E6852"/>
<path fill-rule="evenodd" clip-rule="evenodd" d="M7.5497 560.126C-16.5129 549.616 -36.1119 530.853 -45.2609 496.681C-59.7539 442.549 -93.655 401.784 -131.56 374.609C-169.48 347.424 -211.349 333.882 -241.703 334.134L-241.75 332.742C-211.035 332.486 -168.877 346.163 -130.767 373.485C-92.6419 400.817 -58.5087 441.846 -43.9151 496.353C-34.8848 530.082 -15.6028 548.508 8.08053 558.852C31.8187 569.22 60.0014 571.48 86.828 572.759C90.1174 572.916 93.3871 573.059 96.6253 573.2C106.57 573.632 116.219 574.052 125.23 574.844C137.175 575.894 148.064 577.602 157.115 580.887C166.176 584.176 173.446 589.063 178.079 596.499C182.711 603.932 184.646 613.811 183.235 626.965L183.234 626.979L183.232 626.993C177.76 663.582 185.437 688.565 199.744 707.949C213.874 727.092 234.503 740.829 255.6 754.877L256.555 755.513C277.941 769.756 299.698 784.4 315.198 805.368C330.717 826.361 339.931 853.641 336.401 893.099C339.033 914.966 356.87 933.486 382.401 949.657C407.931 965.828 440.967 979.532 473.598 991.816C484.107 995.772 494.578 999.582 504.739 1003.28C526.094 1011.05 546.084 1018.32 562.194 1025.41C574.082 1030.64 583.919 1035.8 590.661 1041.02C597.373 1046.21 601.214 1051.62 600.651 1057.36L599.263 1057.19C599.751 1052.21 596.453 1047.24 589.825 1042.11C583.227 1037 573.523 1031.91 561.659 1026.69C545.593 1019.62 525.679 1012.37 504.352 1004.61C494.18 1000.91 483.687 997.09 473.136 993.118C440.498 980.832 407.342 967.085 381.676 950.828C356.04 934.591 337.69 915.731 335.009 893.156L335 893.084L335.007 893.012C338.527 853.821 329.384 826.874 314.085 806.177C298.758 785.444 277.22 770.931 255.802 756.666L254.743 755.961C233.725 741.965 212.912 728.106 198.63 708.757C184.074 689.036 176.336 663.669 181.851 626.768C183.238 613.819 181.311 604.29 176.901 597.213C172.492 590.137 165.537 585.414 156.669 582.195C147.793 578.973 137.051 577.278 125.143 576.231C116.165 575.442 106.561 575.024 96.6243 574.592C93.3805 574.451 90.1013 574.308 86.7968 574.151C59.9853 572.871 31.5574 570.612 7.5497 560.126Z" fill="#1F6C55"/>
<path fill-rule="evenodd" clip-rule="evenodd" d="M-13.5726 582.864C-38.2488 572.737 -58.2001 554.113 -66.9955 519.568C-80.9273 464.849 -114.252 423.366 -151.822 395.729C-189.407 368.081 -231.181 354.335 -261.943 355.017L-261.971 353.605C-230.825 352.914 -188.754 366.806 -150.983 394.59C-113.197 422.386 -79.6521 464.13 -65.6268 519.216C-56.9491 553.299 -37.3276 571.587 -13.0338 581.557C11.3161 591.55 40.3766 593.193 67.916 593.877C71.2568 593.96 74.576 594.029 77.8612 594.098C88.0949 594.31 97.9998 594.516 107.208 595.119C119.372 595.915 130.387 597.407 139.416 600.55C148.454 603.696 155.559 608.517 159.813 616.002C164.062 623.481 165.4 633.507 163.143 646.932L163.141 646.942L163.139 646.952C155.575 685.15 163.434 710.225 178.857 729.045C193.569 746.996 215.198 759.314 237.221 771.857C238.364 772.507 239.507 773.158 240.651 773.811C263.785 787.013 286.96 800.789 302.191 821.925C317.45 843.101 324.681 871.577 316.172 914.054C314.757 937.122 330.631 956.108 355.561 972.333C380.483 988.552 414.244 1001.87 448.104 1013.63C460.686 1018 473.287 1022.16 485.446 1026.17C505.967 1032.94 525.229 1039.3 541.016 1045.56C553.589 1050.55 564.025 1055.5 571.174 1060.6C578.284 1065.66 582.374 1071.03 581.719 1076.89L580.316 1076.74C580.877 1071.71 577.398 1066.77 570.353 1061.75C563.348 1056.75 553.044 1051.85 540.492 1046.87C524.739 1040.62 505.551 1034.29 485.065 1027.53C472.899 1023.52 460.274 1019.35 447.638 1014.96C413.771 1003.2 379.867 989.838 354.789 973.517C329.735 957.212 313.276 937.81 314.766 913.922L314.769 913.874L314.778 913.827C323.241 871.626 316.036 843.557 301.045 822.753C286.019 801.901 263.116 788.259 239.948 775.038C238.78 774.371 237.611 773.705 236.442 773.04C214.49 760.54 192.647 748.102 177.764 729.941C162.038 710.753 154.121 685.238 161.751 646.692C163.975 633.46 162.618 623.8 158.584 616.702C154.554 609.608 147.786 604.96 138.949 601.884C130.102 598.805 119.24 597.322 107.113 596.528C97.939 595.928 88.0793 595.723 77.8542 595.51C74.563 595.442 71.2339 595.373 67.8776 595.289C40.3545 594.605 11.0476 592.967 -13.5726 582.864Z" fill="#207158"/>
<path fill-rule="evenodd" clip-rule="evenodd" d="M-35.0476 605.997C-60.121 596.022 -80.4288 577.534 -89.3178 543.076C-103.396 488.5 -136.275 446.431 -173.333 418.145C-210.407 389.848 -251.6 375.393 -282.245 375.965L-282.278 374.557C-251.232 373.979 -209.736 388.593 -172.483 417.028C-135.213 445.475 -102.125 487.802 -87.9549 542.731C-79.1887 576.713 -59.2247 594.866 -34.5326 604.689C-9.78408 614.535 19.7239 616.016 47.5475 616.552C50.8966 616.616 54.222 616.667 57.5113 616.717C67.864 616.876 77.8599 617.029 87.1175 617.585C99.3149 618.317 110.299 619.752 119.205 622.85C128.122 625.951 135.02 630.742 138.935 638.222C142.844 645.691 143.712 655.714 140.849 669.142L140.847 669.153C131.898 708.214 140.258 733.058 156.921 751.208C172.381 768.048 195.023 779.183 217.995 790.48C219.889 791.411 221.784 792.343 223.678 793.28C248.481 805.544 272.993 818.557 288.054 839.753C303.154 861.005 308.675 890.352 295.848 935.09C290.638 959.029 304.539 978.452 328.686 994.876C352.831 1011.3 387.004 1024.56 421.776 1036.15C436.189 1040.96 450.714 1045.48 464.656 1049.82C484.298 1055.93 502.783 1061.69 518.17 1067.37C531.332 1072.23 542.303 1077.06 549.846 1082.06C557.337 1087.02 561.713 1092.33 561.079 1098.19L559.68 1098.03C560.219 1093.04 556.524 1088.17 549.072 1083.23C541.673 1078.33 530.832 1073.54 517.688 1068.69C502.32 1063.02 483.909 1057.29 464.309 1051.18C450.364 1046.84 435.817 1042.32 421.337 1037.49C386.56 1025.89 352.22 1012.58 327.898 996.038C303.585 979.501 289.066 959.572 294.478 934.762L294.483 934.739L294.489 934.718C307.245 890.243 301.689 861.368 286.907 840.565C272.083 819.702 247.901 806.825 223.059 794.54C221.151 793.597 219.239 792.657 217.327 791.717C194.418 780.454 171.535 769.204 155.886 752.157C138.861 733.612 130.44 708.273 139.473 668.838C142.298 655.586 141.387 645.937 137.688 638.87C133.995 631.814 127.457 627.207 118.749 624.179C110.03 621.146 99.2024 619.72 87.0397 618.989C77.8165 618.435 67.8653 618.283 57.5206 618.125C54.2257 618.075 50.8909 618.024 47.527 617.959C19.7205 617.424 -10.0306 615.949 -35.0476 605.997Z" fill="#21755C"/>
</svg>
