<svg width="24" height="24" viewBox="0 0 24 24" fill="none" xmlns="http://www.w3.org/2000/svg">
<path d="M13.5647 15.2198C14.1348 15.5281 15.0292 16.0117 15.6409 16.5862C16.0219 16.944 16.4159 17.4433 16.4883 18.0783C16.5665 18.7654 16.2485 19.3857 15.6772 19.9079C14.7182 20.7845 13.5522 21.5001 12.0399 21.5001H4.96015C3.44779 21.5001 2.28177 20.7845 1.3228 19.9079C0.751481 19.3857 0.433458 18.7654 0.511739 18.0783C0.584083 17.4433 0.978131 16.944 1.35906 16.5862C1.97085 16.0117 2.86511 15.5281 3.43523 15.2198C3.56216 15.1512 3.67304 15.0912 3.76114 15.0409C6.66339 13.3829 10.3366 13.3829 13.2389 15.0409C13.3269 15.0912 13.4378 15.1512 13.5647 15.2198Z" fill="#227A5F"/>
<path d="M3.59766 7.37838C3.59766 4.68412 5.79285 2.5 8.50075 2.5C11.2087 2.5 13.4039 4.68412 13.4039 7.37838C13.4039 10.0726 11.2087 12.2568 8.50075 12.2568C5.79285 12.2568 3.59766 10.0726 3.59766 7.37838Z" fill="#227A5F"/>
<path d="M13.7776 10.9656C13.572 11.2407 13.4692 11.3783 13.5081 11.5144C13.5471 11.6506 13.6841 11.7128 13.9581 11.8373C14.5282 12.0963 15.1712 12.2419 15.8515 12.2419C18.1982 12.2419 20.1005 10.5088 20.1005 8.37097C20.1005 6.23309 18.1982 4.5 15.8515 4.5C15.5956 4.5 15.345 4.52061 15.1016 4.56011C14.8001 4.60902 14.6494 4.63347 14.5698 4.75422C14.4902 4.87497 14.5465 5.03357 14.6592 5.35075C14.8816 5.97695 15.0017 6.64504 15.0017 7.33871C15.0017 8.68342 14.5502 9.93204 13.7776 10.9656Z" fill="#227A5F"/>
<path d="M18.892 20.5C20.4239 20.5 21.6154 19.9038 22.6062 19.1596C23.1934 18.7186 23.5781 18.1506 23.4852 17.4806C23.4017 16.8788 22.9553 16.4309 22.5701 16.1336C21.939 15.6466 21.0183 15.2377 20.4382 14.98C20.3101 14.9231 20.1986 14.8735 20.1104 14.8322C18.98 14.3015 17.7363 13.9735 16.4659 13.8483C15.6466 13.7676 15.237 13.7272 15.1433 13.9501C15.0497 14.173 15.4145 14.4118 16.1441 14.8893C16.4211 15.0707 16.6892 15.265 16.9244 15.4673C17.4539 15.9226 18.2303 16.7422 18.3767 17.9186C18.4446 18.4638 18.366 18.9661 18.1893 19.4199C17.9789 19.9603 17.8737 20.2305 17.9647 20.3586C17.9705 20.3668 17.9741 20.3713 17.9806 20.3791C18.0827 20.5 18.3524 20.5 18.892 20.5Z" fill="#227A5F"/>
</svg>
