<svg width="483" height="238" viewBox="0 0 483 238" fill="none" xmlns="http://www.w3.org/2000/svg">
<path fill-rule="evenodd" clip-rule="evenodd" d="M333.604 -110.34C323.076 -117.681 314.624 -129.308 309.991 -148.786C302.646 -179.67 280.706 -198.872 256.211 -210.332C231.71 -221.795 204.692 -225.491 187.301 -225.373L187.298 -226.169C204.781 -226.287 231.921 -222.576 256.549 -211.053C281.184 -199.528 303.346 -180.166 310.765 -148.972C315.361 -129.651 323.717 -118.205 334.06 -110.993C344.42 -103.77 356.812 -100.766 369.549 -98.4111C371.853 -97.985 374.169 -97.5804 376.486 -97.1758C399.715 -93.118 423.027 -89.0458 435.491 -63.1629C442.334 -48.9521 443.33 -33.5828 442.733 -18.1665C442.503 -12.232 442.036 -6.28017 441.573 -0.382961C441.435 1.37813 441.297 3.13435 441.166 4.88377C440.596 12.4975 440.154 19.9887 440.364 27.2349C440.782 41.7234 443.801 55.1951 453.569 66.6478C463.343 78.1068 479.919 87.5993 507.569 94.0198C562.99 106.889 600.847 124.292 624.469 141.562C636.28 150.197 644.542 158.806 649.658 166.809C654.771 174.81 656.756 182.23 655.958 188.47L655.169 188.372C655.936 182.375 654.038 175.141 648.987 167.239C643.938 159.34 635.753 150.798 623.998 142.204C600.489 125.016 562.74 107.648 507.387 94.7946C479.649 88.3537 462.889 78.8024 452.963 67.165C443.032 55.5212 439.989 41.8437 439.568 27.26C439.358 19.97 439.803 12.4443 440.373 4.82656C440.504 3.07063 440.642 1.31015 440.781 -0.453595C441.243 -6.34773 441.708 -12.2781 441.938 -18.1952C442.534 -33.5678 441.533 -48.7808 434.774 -62.8162C422.496 -88.3146 399.603 -92.3209 376.33 -96.3936C374.021 -96.7977 371.708 -97.2024 369.402 -97.6288C356.657 -99.9852 344.115 -103.011 333.604 -110.34Z" fill="#11362D"/>
<path fill-rule="evenodd" clip-rule="evenodd" d="M147.88 83.4471C133.63 77.6835 122.154 67.169 117.382 47.7552C109.825 17.01 91.9372 -7.29112 71.6244 -23.9144C51.3023 -40.5451 28.591 -49.4615 11.4183 -49.4907L11.4084 -50.2795C28.8161 -50.2499 51.7002 -41.2317 72.1187 -24.522C92.5464 -7.80477 110.544 16.6403 118.148 47.5771C122.852 66.7145 134.13 77.0386 148.167 82.7164C162.236 88.4069 179.078 89.43 194.887 89.9111C196.781 89.9688 198.66 90.0187 200.518 90.068C206.402 90.2242 212.069 90.3746 217.294 90.7474C224.168 91.2378 230.317 92.1148 235.23 93.9128C240.149 95.7133 243.87 98.4531 245.815 102.69C247.756 106.916 247.891 112.552 245.822 120.07C242.742 131.264 242.407 140.335 244.074 147.85C245.741 155.361 249.414 161.344 254.397 166.355C263.415 175.425 276.693 181.294 290.123 187.23C291.573 187.871 293.025 188.513 294.473 189.16C309.287 195.773 323.741 202.899 331.94 214.993C340.166 227.127 342.037 244.161 331.96 270.439C329.288 277.407 329.61 283.69 332.194 289.418C334.785 295.161 339.663 300.376 346.159 305.159C359.156 314.729 378.505 322.483 398.493 329.246C407.546 332.308 416.719 335.164 425.482 337.893C426.388 338.175 427.29 338.455 428.187 338.735C437.752 341.716 446.754 344.552 454.463 347.346C462.166 350.137 468.605 352.895 473.034 355.726C475.248 357.142 476.982 358.59 478.119 360.089C479.261 361.594 479.813 363.169 479.617 364.812L478.833 364.708C478.999 363.32 478.545 361.947 477.493 360.56C476.437 359.167 474.79 357.779 472.615 356.389C468.266 353.608 461.897 350.875 454.203 348.087C446.515 345.301 437.53 342.47 427.962 339.488C427.064 339.208 426.161 338.927 425.254 338.645C416.493 335.917 407.312 333.058 398.25 329.992C378.26 323.229 358.804 315.443 345.697 305.792C339.142 300.965 334.144 295.65 331.476 289.734C328.801 283.804 328.48 277.302 331.223 270.148C341.25 244 339.312 227.265 331.289 215.429C323.238 203.553 309.003 196.505 294.16 189.879C292.71 189.232 291.255 188.589 289.798 187.945C276.399 182.025 262.974 176.092 253.842 166.908C248.766 161.803 245.008 155.688 243.304 148.011C241.602 140.338 241.957 131.132 245.061 119.851C247.106 112.421 246.929 106.997 245.099 103.011C243.274 99.0345 239.767 96.4094 234.968 94.6532C230.163 92.8946 224.105 92.0233 217.249 91.5342C212.043 91.1628 206.401 91.013 200.522 90.8569C198.661 90.8075 196.776 90.7575 194.874 90.6996C179.076 90.2187 162.098 89.1978 147.88 83.4471Z" fill="#227A5F"/>
<path fill-rule="evenodd" clip-rule="evenodd" d="M329.115 -105.642C318.498 -112.95 309.959 -124.539 305.281 -143.973C297.863 -174.787 276.036 -194.13 251.688 -205.761C227.333 -217.396 200.494 -221.294 183.158 -221.23L183.153 -222.023C200.584 -222.087 227.546 -218.172 252.027 -206.477C276.515 -194.779 298.56 -175.276 306.052 -144.157C310.692 -124.882 319.133 -113.474 329.563 -106.294C340.01 -99.1023 352.492 -96.1236 365.278 -93.7884C367.548 -93.3739 369.827 -92.9799 372.107 -92.586C395.443 -88.5528 418.739 -84.5265 430.748 -58.584L430.749 -58.581C437.269 -44.1795 438.406 -28.8903 438.132 -13.6598C438.032 -8.12388 437.745 -2.58602 437.461 2.89938C437.355 4.9573 437.249 7.00783 437.153 9.04813C436.801 16.5334 436.59 23.889 437.006 31.0115C437.838 45.2521 441.178 58.5306 450.912 69.9955C460.649 81.4654 476.826 91.1694 503.431 98.1674C557.007 111.566 594.798 129.03 618.824 146.216C630.837 154.809 639.421 163.34 644.813 171.27C650.202 179.196 652.425 186.554 651.648 192.781L650.861 192.68C651.606 186.713 649.485 179.549 644.158 171.715C638.833 163.884 630.326 155.417 618.364 146.861C594.443 129.75 556.752 112.319 503.239 98.9363L503.234 98.935C476.539 91.9135 460.189 82.1472 450.308 70.5075C440.422 58.8625 437.051 45.3915 436.214 31.055C435.795 23.889 436.009 16.499 436.361 9.00826C436.457 6.95988 436.563 4.90456 436.67 2.84406C436.954 -2.6371 437.239 -8.15496 437.339 -13.6768C437.613 -28.8669 436.474 -44.0144 430.027 -58.2542C418.203 -83.7981 395.338 -87.7574 371.954 -91.8066C369.684 -92.1997 367.409 -92.5937 365.139 -93.0083C352.344 -95.345 339.713 -98.3454 329.115 -105.642Z" fill="#11382E"/>
<path fill-rule="evenodd" clip-rule="evenodd" d="M323.765 -100.067C313.004 -107.291 304.413 -118.882 299.897 -138.481C292.737 -169.556 271 -189.016 246.629 -200.653C222.253 -212.292 195.279 -216.083 177.753 -215.827L177.757 -216.629C195.383 -216.886 222.481 -213.078 246.986 -201.378C271.496 -189.674 293.449 -170.054 300.679 -138.675C305.157 -119.241 313.648 -107.833 324.22 -100.735C334.81 -93.625 347.526 -90.8119 360.52 -88.6493C362.771 -88.2747 365.03 -87.9196 367.289 -87.5647C378.038 -85.8754 388.752 -84.1918 398.288 -80.438C409.857 -75.8838 419.719 -68.2759 425.909 -53.9255L425.912 -53.9193C431.963 -39.1929 433.051 -23.7879 432.907 -8.53981C432.859 -3.39227 432.671 1.73018 432.485 6.80275C432.118 16.7859 431.759 26.576 432.484 35.984C433.577 50.1441 437.128 63.352 446.798 74.8556C456.471 86.3629 472.303 96.2084 498.044 103.563C550.18 116.976 588.19 134.215 612.758 151.207C625.042 159.702 633.978 168.145 639.637 176.029C645.291 183.907 647.701 191.268 646.845 197.582L646.051 197.489C646.868 191.458 644.577 184.299 638.982 176.505C633.392 168.715 624.53 160.332 612.294 151.869C587.823 134.944 549.904 117.736 497.827 104.339L497.817 104.336C471.982 96.9553 455.988 87.0457 446.18 75.3781C436.369 63.7058 432.785 50.3176 431.685 36.0603C430.956 26.6089 431.318 16.7373 431.685 6.72428C431.871 1.66281 432.058 -3.43479 432.105 -8.53254C432.249 -23.744 431.161 -39.0208 425.17 -53.5993C419.077 -67.7259 409.39 -75.2006 397.982 -79.6912C388.535 -83.4101 377.927 -85.0779 367.179 -86.7676C364.914 -87.1237 362.642 -87.4808 360.374 -87.8583C347.374 -90.022 334.507 -92.8545 323.765 -100.067Z" fill="#123A30"/>
<path fill-rule="evenodd" clip-rule="evenodd" d="M318.464 -94.5223C307.642 -101.751 298.916 -113.265 294.177 -132.642C286.662 -163.364 265.08 -183.012 241.022 -194.99C216.957 -206.971 190.452 -211.257 173.191 -211.265L173.182 -212.054C190.546 -212.047 217.176 -207.74 241.367 -195.696C265.564 -183.649 287.357 -163.84 294.944 -132.821C299.643 -113.61 308.265 -102.279 318.898 -95.1776C329.549 -88.0631 342.255 -85.1656 355.184 -82.9018C357.376 -82.5181 359.574 -82.1525 361.77 -81.7874C372.5 -80.0035 383.163 -78.2306 392.612 -74.4021C404.027 -69.7775 413.698 -62.1462 419.676 -47.8854L419.68 -47.8759L419.68 -47.8758C425.46 -33.0317 426.872 -17.88 427.275 -3.01866C427.397 1.47349 427.426 5.93464 427.456 10.3524C427.524 20.5731 427.591 30.5616 428.792 40.1643C430.508 53.8948 434.54 66.7732 444.19 78.2696C453.842 89.7687 469.148 99.9228 493.48 108.142C543.047 122.585 580.743 140.13 605.692 157.116C618.166 165.608 627.467 173.971 633.47 181.748C639.467 189.517 642.209 196.752 641.458 202.97L640.674 202.866C641.388 196.946 638.786 189.921 632.847 182.226C626.913 174.538 617.684 166.231 605.253 157.767C580.392 140.841 542.775 123.325 493.259 108.898L493.251 108.896L493.243 108.893C468.818 100.643 453.365 90.4214 443.588 78.7733C433.807 67.1212 429.737 54.0793 428.008 40.2533C426.801 30.6024 426.734 20.5383 426.665 10.2951C426.636 5.8882 426.606 1.44815 426.485 -3.0064C426.083 -17.837 424.674 -32.8781 418.946 -47.5921C413.064 -61.6214 403.572 -69.1129 392.323 -73.6706C382.963 -77.4628 372.405 -79.2188 361.677 -81.0033C359.475 -81.3697 357.265 -81.7373 355.057 -82.1239C342.122 -84.3887 329.268 -87.3065 318.464 -94.5223Z" fill="#123C31"/>
<path fill-rule="evenodd" clip-rule="evenodd" d="M312.3 -88.0968C301.36 -95.277 292.535 -106.754 287.78 -126.118C280.242 -156.819 258.792 -176.633 234.878 -188.786C210.957 -200.943 184.606 -205.414 167.365 -205.439L167.356 -206.228C184.704 -206.203 211.181 -201.709 235.228 -189.489C259.28 -177.265 280.936 -157.291 288.546 -126.297C293.259 -107.102 301.978 -95.8093 312.727 -88.7547C323.496 -81.6872 336.339 -78.8465 349.359 -76.6357C351.517 -76.2693 353.681 -75.9201 355.841 -75.5716C366.682 -73.822 377.423 -72.0886 386.864 -68.2675C398.217 -63.6721 407.718 -56.0495 413.348 -41.7637L413.35 -41.7573L413.353 -41.7509C418.714 -26.6523 420.259 -11.5578 421.017 3.11926C421.211 6.87008 421.353 10.5912 421.494 14.2776C421.905 25.0345 422.305 35.4962 423.938 45.5395C426.128 59.0063 430.53 71.6764 440.132 83.1924C449.735 94.7099 464.565 105.105 487.664 113.973C535.06 128.936 572.731 146.499 598.2 163.367C610.934 171.801 620.632 180.07 626.97 187.767C633.3 195.453 636.324 202.627 635.579 208.849L634.795 208.745C635.502 202.842 632.641 195.886 626.364 188.263C620.095 180.651 610.467 172.432 597.77 164.023C572.38 147.207 534.778 129.67 487.425 114.721L487.413 114.718L487.402 114.713C464.21 105.811 449.246 95.3475 439.528 83.6928C429.808 72.0347 425.364 59.2166 423.159 45.6558C421.518 35.56 421.115 25.0279 420.704 14.2567C420.563 10.5795 420.421 6.87438 420.229 3.14928C419.473 -11.5034 417.932 -26.5034 412.612 -41.4894C407.075 -55.534 397.759 -63.0103 386.576 -67.5367C377.227 -71.3208 366.593 -73.0377 355.752 -74.788C353.586 -75.1377 351.411 -75.4887 349.238 -75.8578C336.212 -78.0695 323.221 -80.9294 312.3 -88.0968Z" fill="#133E33"/>
<path fill-rule="evenodd" clip-rule="evenodd" d="M306.075 -81.5926C295.006 -88.7186 286.077 -100.157 281.318 -119.52C273.774 -150.218 252.463 -170.207 228.693 -182.538C204.916 -194.872 178.712 -199.522 161.478 -199.551L161.468 -200.34C178.815 -200.311 205.146 -195.636 229.048 -183.237C252.956 -170.835 274.469 -150.685 282.084 -119.698C286.8 -100.509 295.62 -89.2556 306.496 -82.2542C317.392 -75.2395 330.389 -72.4675 343.517 -70.3216C345.642 -69.9741 347.772 -69.6431 349.896 -69.3128C360.863 -67.6081 371.693 -65.9245 381.126 -62.1171C392.42 -57.5583 401.74 -49.9467 406.991 -35.6276L406.994 -35.6196L406.997 -35.6115C411.905 -20.2344 413.581 -5.18951 414.706 9.30238C414.921 12.0778 415.116 14.832 415.31 17.5639C416.128 29.1105 416.918 40.2602 419.091 50.9429C421.775 64.1389 426.566 76.5939 436.114 88.1323C445.663 99.6709 459.991 110.319 481.79 119.865C526.897 135.354 564.557 152.92 590.586 169.656C603.601 178.024 613.725 186.195 620.418 193.807C627.1 201.406 630.423 208.518 629.678 214.75L628.895 214.645C629.599 208.756 626.465 201.87 619.829 194.323C613.204 186.789 603.149 178.665 590.166 170.318C564.205 153.626 526.603 136.083 481.528 120.606L481.512 120.6L481.497 120.594C459.609 111.01 445.161 100.293 435.509 88.6302C425.855 76.9642 421.021 64.3772 418.318 51.0897C416.133 40.3513 415.339 29.1371 414.521 17.5864C414.328 14.8599 414.134 12.1146 413.919 9.35238C412.796 -5.12289 411.125 -20.09 406.248 -35.3732C401.087 -49.4405 391.957 -56.8988 380.839 -61.3861C371.5 -65.1558 360.779 -66.8233 349.811 -68.529C347.681 -68.8604 345.541 -69.1932 343.4 -69.5431C330.269 -71.6896 317.124 -74.4799 306.075 -81.5926Z" fill="#144035"/>
<path fill-rule="evenodd" clip-rule="evenodd" d="M298.848 -74.0678C287.575 -81.0701 278.573 -92.5062 274.043 -112.1C266.861 -143.163 245.682 -163.323 221.888 -175.665C198.087 -188.01 171.701 -192.514 154.2 -192.273L154.202 -193.074C171.823 -193.316 198.339 -188.788 222.266 -176.377C246.199 -163.963 267.575 -143.643 274.824 -112.293C279.312 -92.8794 288.203 -81.6305 299.279 -74.7502C310.376 -67.8566 323.703 -65.3241 337.122 -63.4251C339.243 -63.1249 341.368 -62.8405 343.486 -62.557C354.734 -61.0512 365.804 -59.5693 375.315 -55.8676C386.653 -51.4546 395.806 -43.8789 400.503 -29.3732L400.506 -29.3635L400.509 -29.3537C404.757 -13.5019 406.362 1.7009 407.672 16.1993C407.803 17.6398 407.93 19.073 408.056 20.4992C409.205 33.4383 410.302 45.7916 413.056 57.5679C416.112 70.6314 421.204 82.9697 430.663 94.5648C440.121 106.159 453.962 117.03 474.542 127.136C517.641 142.757 555.608 160.005 582.393 176.442C595.786 184.66 606.402 192.686 613.466 200.216C620.514 207.73 624.1 214.83 623.245 221.183L622.451 221.09C623.256 215.109 619.888 208.243 612.877 200.769C605.881 193.312 595.332 185.328 581.966 177.126C555.238 160.726 517.318 143.495 474.237 127.882L474.217 127.875L474.198 127.865C453.533 117.72 439.588 106.783 430.039 95.0775C420.488 83.37 415.352 70.9149 412.276 57.7627C409.508 45.9283 408.406 33.5173 407.259 20.5881C407.132 19.1599 407.005 17.7254 406.874 16.2847C405.565 1.79364 403.964 -13.3471 399.738 -29.1245C395.124 -43.3645 386.166 -50.7795 375.014 -55.1203C365.599 -58.7845 354.641 -60.2523 343.391 -61.7592C341.267 -62.0437 339.133 -62.3296 336.996 -62.6319C323.575 -64.5311 310.099 -67.0788 298.848 -74.0678Z" fill="#144336"/>
<path fill-rule="evenodd" clip-rule="evenodd" d="M291.931 -66.835C280.57 -73.8325 271.418 -85.1935 266.683 -104.586C259.177 -135.327 238.169 -155.699 214.689 -168.393C191.202 -181.091 165.274 -186.087 148.015 -186.087L148.007 -186.877C165.388 -186.877 191.448 -181.852 215.059 -169.087C238.676 -156.319 259.876 -135.787 267.45 -104.766C272.14 -85.5562 281.176 -74.3825 292.34 -67.5066C303.526 -60.617 316.883 -58.0187 330.269 -56.0403C332.335 -55.735 334.402 -55.4445 336.461 -55.155C347.717 -53.5728 358.756 -52.0211 368.174 -48.2608C379.354 -43.7971 388.282 -36.2121 392.682 -21.7986L392.685 -21.7876L392.688 -21.7764C396.415 -6.44012 398.346 7.93816 400.171 21.5246C400.251 22.1233 400.331 22.7205 400.411 23.3162C402.311 37.4364 404.175 50.6928 407.924 63.3259C415.409 88.5485 430.418 111.323 468.362 133.342C508.513 149.922 546.192 167.448 573.473 183.873C587.114 192.086 598.174 200.034 605.645 207.463C613.096 214.872 617.067 221.854 616.307 228.122L615.523 228.019C616.235 222.143 612.514 215.402 605.091 208.02C597.687 200.658 586.69 192.748 573.071 184.549C545.836 168.152 508.19 150.639 468.042 134.062L468.017 134.051L467.994 134.038C429.872 111.921 414.716 88.9837 407.166 63.5432C403.397 50.8421 401.527 37.5261 399.628 23.4133C399.549 22.821 399.469 22.2272 399.389 21.632C397.564 8.04215 395.639 -6.2957 391.923 -21.5864C387.604 -35.7249 378.876 -43.14 367.888 -47.5274C358.567 -51.2487 347.642 -52.7853 336.382 -54.3689C334.317 -54.6593 332.241 -54.9513 330.162 -55.2586C316.774 -57.2372 303.27 -59.8512 291.931 -66.835Z" fill="#154538"/>
<path fill-rule="evenodd" clip-rule="evenodd" d="M284.019 -58.5918C272.495 -65.5153 263.223 -76.8352 258.513 -96.2551C251.046 -127.039 230.204 -147.619 206.874 -160.503C183.538 -173.392 157.744 -178.56 140.458 -178.53L140.451 -179.322C157.865 -179.352 183.793 -174.152 207.253 -161.196C230.72 -148.236 251.749 -127.495 259.282 -96.4364C263.947 -77.2046 273.099 -66.0732 284.423 -59.2695C295.77 -52.452 309.333 -49.9575 322.869 -48.0799C324.907 -47.7972 326.946 -47.5285 328.976 -47.2608C340.394 -45.7553 351.55 -44.2844 360.959 -40.5564C372.083 -36.1495 380.798 -28.5791 384.725 -14.1047L384.729 -14.0924L384.731 -14.0798C387.119 -2.33659 388.856 8.67312 390.5 19.0946C391.147 23.1978 391.78 27.2098 392.433 31.1395C394.745 45.0585 397.304 57.9548 401.627 70.28C410.26 94.8995 425.94 117.285 460.826 140.907C498.289 158.069 535.997 175.559 563.968 191.803C577.955 199.926 589.529 207.749 597.424 215.077C601.371 218.741 604.413 222.293 606.374 225.71C608.336 229.129 609.23 232.434 608.843 235.586L608.057 235.484C608.417 232.553 607.595 229.422 605.688 226.101C603.781 222.778 600.802 219.288 596.888 215.655C589.058 208.388 577.545 200.6 563.574 192.486C535.636 176.261 497.952 158.783 460.47 141.612L460.44 141.598L460.413 141.58C425.386 117.869 409.58 95.3466 400.88 70.5371C396.534 58.1445 393.965 45.1925 391.652 31.2637C390.998 27.3219 390.364 23.3028 389.716 19.1955C388.073 8.78364 386.341 -2.19478 383.958 -13.9149C380.105 -28.1019 371.596 -35.493 360.672 -39.8208C351.363 -43.5092 340.323 -44.9657 328.899 -46.4729C326.864 -46.7414 324.817 -47.0114 322.766 -47.2959C309.229 -49.1736 295.52 -51.6822 284.019 -58.5918Z" fill="#16483A"/>
<path fill-rule="evenodd" clip-rule="evenodd" d="M276.094 -50.3178C264.399 -57.1636 255 -68.439 250.312 -87.8847C242.882 -118.708 222.215 -139.509 199.047 -152.597C175.872 -165.69 150.225 -171.046 132.916 -170.988L132.91 -171.781C150.355 -171.839 176.137 -166.449 199.435 -153.287C222.739 -140.122 243.587 -119.161 251.083 -88.0675C255.724 -68.8153 264.999 -57.7293 276.492 -51.0015C288.009 -44.2596 301.787 -41.8731 315.479 -40.0998C317.491 -39.8392 319.502 -39.5919 321.503 -39.3457C333.089 -37.9206 344.364 -36.5337 353.759 -32.8402C359.279 -30.67 364.171 -27.6975 368.112 -23.4396C372.055 -19.1801 375.03 -13.6524 376.741 -6.39742L376.745 -6.38394L376.747 -6.37027C377.417 -2.27112 378.054 1.71602 378.676 5.60117C383.135 33.4849 386.754 56.1143 395.414 77.184C405.267 101.158 421.658 123.129 453.307 148.46C466.448 155.213 480.043 161.921 493.423 168.522C515.278 179.304 536.559 189.804 554.354 199.758C568.706 207.787 580.822 215.478 589.165 222.697C593.336 226.307 596.58 229.812 598.686 233.197C600.794 236.584 601.78 239.876 601.386 243.043L600.599 242.942C600.964 240.013 600.062 236.904 598.014 233.614C595.966 230.323 592.787 226.878 588.647 223.296C580.369 216.131 568.311 208.473 553.969 200.45C536.188 190.503 514.944 180.022 493.107 169.248C479.711 162.639 466.092 155.92 452.911 149.146L452.875 149.128L452.844 149.103C421.097 123.698 404.6 101.618 394.68 77.4828C385.983 56.3214 382.349 33.5922 377.892 5.72239C377.272 1.84058 376.635 -2.14093 375.967 -6.23181C374.282 -13.3623 371.368 -18.7579 367.532 -22.9024C363.691 -27.0512 358.911 -29.9644 353.472 -32.1026C344.179 -35.7558 333.022 -37.1291 321.429 -38.5561C319.423 -38.803 317.405 -39.0514 315.381 -39.3136C301.689 -41.0868 287.764 -43.486 276.094 -50.3178Z" fill="#164B3D"/>
<path fill-rule="evenodd" clip-rule="evenodd" d="M268.368 -42.2258C256.511 -49.0067 246.972 -60.229 242.257 -79.6512C234.784 -110.435 214.301 -131.468 191.338 -144.805C168.367 -158.147 142.945 -163.769 125.669 -163.742L125.662 -164.534C143.079 -164.56 168.639 -158.901 191.731 -145.489C214.83 -132.073 235.489 -110.881 243.026 -79.8323C247.692 -60.6088 257.103 -49.5766 268.757 -42.9121C280.436 -36.2332 294.4 -33.9209 308.216 -32.2162C310.197 -31.9717 312.176 -31.7397 314.145 -31.5089C325.869 -30.1345 337.231 -28.8025 346.588 -25.1274C352.064 -22.9766 356.874 -20.0169 360.685 -15.7621C364.497 -11.5055 367.289 -5.97313 368.759 1.29428L368.762 1.30859L368.764 1.3231C373.093 35.5262 378.322 60.5507 389.513 83.8096C400.698 107.058 417.853 128.572 446.083 155.723C465.451 167.074 487.083 178.025 507.708 188.466C520.734 195.061 533.359 201.452 544.759 207.613C559.472 215.564 572.143 223.131 580.951 230.241C585.355 233.796 588.812 237.251 591.076 240.597C593.34 243.945 594.431 247.216 594.043 250.385L593.257 250.283C593.615 247.37 592.622 244.291 590.421 241.037C588.22 237.783 584.831 234.386 580.457 230.855C571.71 223.795 559.095 216.257 544.386 208.308C533.028 202.17 520.42 195.787 507.399 189.195C486.737 178.734 465.036 167.748 445.646 156.381L445.605 156.357L445.571 156.325C417.288 129.126 400.048 107.527 388.8 84.1483C377.554 60.774 372.313 35.65 367.98 1.43108C366.534 -5.70891 363.8 -11.1023 360.097 -15.2367C356.39 -19.3757 351.696 -22.2733 346.304 -24.3911C337.051 -28.0251 325.809 -29.344 314.076 -30.7205C312.104 -30.9519 310.117 -31.1849 308.125 -31.4308C294.311 -33.1353 280.201 -35.4592 268.368 -42.2258Z" fill="#174E3F"/>
<path fill-rule="evenodd" clip-rule="evenodd" d="M258.837 -32.3091C246.786 -38.9997 237.108 -50.1734 232.429 -69.6346C225.012 -100.479 204.725 -121.757 181.934 -135.314C159.137 -148.875 133.864 -154.69 116.549 -154.621L116.544 -155.414C134.007 -155.484 159.421 -149.628 182.339 -135.995C205.263 -122.359 225.721 -100.922 233.2 -69.818C237.83 -50.5616 247.375 -39.579 259.22 -33.0024C271.091 -26.4115 285.301 -24.2276 299.298 -22.6473C301.258 -22.426 303.215 -22.2166 305.16 -22.0083C317.072 -20.7332 328.566 -19.5027 337.903 -15.8732C343.347 -13.7573 348.08 -10.8189 351.751 -6.5651C355.424 -2.3094 358.014 3.23995 359.204 10.5454L359.207 10.5603L359.208 10.5754C362.208 45.6328 369.344 69.6748 381.873 92.2092C394.243 114.457 411.876 135.248 436.032 163.732L436.992 164.863C458.67 179.496 485.708 193.088 510.736 205.669C518.556 209.6 526.179 213.432 533.381 217.167C548.504 225.008 561.778 232.423 571.083 239.411C575.735 242.904 579.415 246.306 581.838 249.617C584.261 252.928 585.454 256.186 585.056 259.373L584.269 259.273C584.633 256.361 583.555 253.304 581.198 250.084C578.841 246.864 575.231 243.517 570.607 240.044C561.361 233.1 548.14 225.712 533.018 217.871C525.836 214.147 518.227 210.322 510.417 206.396C485.363 193.801 458.237 180.165 436.503 165.489L436.458 165.458L435.387 164.195C411.266 135.754 393.588 114.91 381.18 92.5932C368.587 69.9444 361.427 45.7924 358.419 10.6558C357.248 3.48063 354.712 -1.92209 351.152 -6.04774C347.587 -10.1781 342.974 -13.0516 337.617 -15.1339C328.387 -18.7218 317.016 -19.9401 305.094 -21.2174C303.145 -21.4262 301.182 -21.6365 299.211 -21.859C285.217 -23.439 270.861 -25.6328 258.837 -32.3091Z" fill="#185141"/>
<path fill-rule="evenodd" clip-rule="evenodd" d="M249.337 -22.4087C237.09 -29.009 227.263 -40.1297 222.606 -59.6171C215.226 -90.5012 195.145 -112.037 172.545 -125.834C149.939 -139.636 124.844 -145.674 107.505 -145.578L107.501 -146.372C124.995 -146.47 150.235 -140.386 172.96 -126.512C195.692 -112.634 215.938 -90.9399 223.379 -59.802C227.985 -40.5256 237.674 -29.5969 249.715 -23.1082C261.781 -16.6051 276.238 -14.5451 290.414 -13.0839C292.354 -12.8839 294.289 -12.6952 296.212 -12.5077C308.307 -11.3282 319.926 -10.195 329.233 -6.60933C334.639 -4.52645 339.291 -1.60838 342.816 2.64471C346.344 6.89969 348.723 12.4647 349.626 19.8048L349.627 19.82L349.628 19.8352C351.263 55.7662 360.417 78.7466 374.367 100.508C381.202 111.169 389.187 121.538 398.018 133.003L398.591 133.747C407.636 145.492 417.547 158.402 427.977 173.93C449.787 191.232 481.04 206.597 509.241 220.462C513.554 222.582 517.795 224.668 521.921 226.72C537.466 234.451 551.368 241.709 561.192 248.569C566.104 251.999 570.018 255.344 572.61 258.615C575.201 261.886 576.503 265.128 576.098 268.331L575.31 268.231C575.678 265.324 574.509 262.293 571.987 259.109C569.465 255.925 565.622 252.632 560.737 249.221C550.969 242.399 537.117 235.165 521.567 227.431C517.448 225.383 513.211 223.299 508.9 221.18C480.688 207.311 449.32 191.89 427.435 174.514L427.386 174.476L427.352 174.425C416.925 158.897 407.016 145.99 397.961 134.231L397.378 133.474C388.556 122.02 380.551 111.627 373.698 100.937C359.679 79.0688 350.478 55.9576 348.835 19.8869C347.946 12.6789 345.617 7.26832 342.205 3.15191C338.788 -0.969298 334.264 -3.8194 328.947 -5.86791C319.75 -9.41129 308.256 -10.5333 296.149 -11.7151C294.223 -11.9031 292.282 -12.0926 290.333 -12.2935C276.16 -13.7543 261.558 -15.8228 249.337 -22.4087Z" fill="#195544"/>
<path fill-rule="evenodd" clip-rule="evenodd" d="M239.812 -12.4635C227.358 -18.9687 217.376 -30.0331 212.742 -49.5479C205.4 -80.4733 185.534 -102.28 163.137 -116.329C140.732 -130.384 115.824 -136.657 98.4606 -136.532L98.4578 -137.328C115.984 -137.454 141.039 -131.132 163.561 -117.004C186.091 -102.871 206.115 -80.9078 213.517 -49.7344C218.098 -30.4373 227.938 -19.5653 240.183 -13.1692C252.455 -6.75867 267.171 -4.82894 281.534 -3.49276C283.457 -3.31393 285.373 -3.14574 287.277 -2.97868C299.56 -1.9009 311.306 -0.870198 320.577 2.66799C325.944 4.71644 330.51 7.61371 333.883 11.8667C337.258 16.1216 339.416 21.7037 340.018 29.0805L340.019 29.0955L340.019 29.1106C340.224 65.9616 351.49 87.8216 366.933 108.771C371.109 114.435 375.596 120.038 380.254 125.856C392.816 141.545 406.629 158.796 418.962 183.007C429.787 193.357 444.618 202.868 460.752 211.699C475.175 219.593 490.62 226.933 505.15 233.838C506.895 234.668 508.627 235.491 510.343 236.308C526.331 243.923 540.892 251.016 551.26 257.741C556.443 261.103 560.602 264.388 563.37 267.617C566.136 270.845 567.555 274.068 567.142 277.288L566.353 277.189C566.725 274.288 565.462 271.283 562.765 268.136C560.07 264.992 555.984 261.755 550.825 258.409C540.509 251.718 525.997 244.647 509.999 237.027C508.283 236.21 506.551 235.386 504.805 234.557C490.278 227.653 474.812 220.303 460.368 212.397C444.19 203.542 429.267 193.976 418.362 183.536L418.313 183.49L418.283 183.43C405.982 159.266 392.232 142.093 379.673 126.408C375.003 120.575 370.497 114.949 366.292 109.244C350.779 88.2007 339.432 66.1844 339.223 29.1329C338.63 21.8893 336.516 16.4697 333.259 12.3626C329.998 8.25088 325.566 5.4249 320.291 3.41163C311.133 -0.083624 299.515 -1.10419 287.217 -2.18446C285.311 -2.35185 283.389 -2.52066 281.458 -2.70035C267.099 -4.03607 252.239 -5.97269 239.812 -12.4635Z" fill="#1A5846"/>
<path fill-rule="evenodd" clip-rule="evenodd" d="M230.424 -2.63983C217.769 -9.05973 207.621 -20.0627 202.977 -39.5707C195.618 -70.4835 175.974 -92.5675 153.806 -106.901C131.632 -121.239 106.963 -127.801 89.6152 -127.688L89.6118 -128.483C107.13 -128.597 131.949 -121.982 154.239 -107.569C176.537 -93.1512 196.334 -70.9109 203.751 -39.7566C208.342 -20.4726 218.34 -9.6625 230.785 -3.34925C243.259 2.97841 258.214 4.80219 272.742 6.03859C274.646 6.20064 276.543 6.35258 278.427 6.50342C290.876 7.50034 302.726 8.4492 311.941 11.9496C317.26 13.9701 321.732 16.8497 324.948 21.1011C328.165 25.3542 330.1 30.9461 330.404 38.3449L330.405 38.3594L330.405 38.3739C329.805 57.2515 332.884 71.8475 338.228 84.2275C343.575 96.612 351.196 106.798 359.713 116.853C362.389 120.012 365.153 123.157 367.961 126.353C383.014 143.483 399.341 162.063 410.142 191.891C419.162 202.643 433.074 212.36 448.861 221.272C464.67 230.196 482.323 238.296 498.763 245.814L499.569 246.182C515.69 253.554 530.603 260.373 541.351 266.857C546.813 270.153 551.226 273.377 554.178 276.561C557.127 279.741 558.672 282.94 558.26 286.169L557.471 286.07C557.839 283.182 556.475 280.209 553.594 277.102C550.717 273.999 546.379 270.82 540.939 267.538C530.23 261.078 515.352 254.274 499.202 246.89L498.431 246.537C481.996 239.021 464.312 230.909 448.469 221.965C432.632 213.024 418.599 203.234 409.487 192.349L409.442 192.295L409.418 192.229C398.672 162.514 382.438 144.037 367.379 126.898C364.566 123.696 361.793 120.541 359.106 117.368C350.572 107.293 342.891 97.0357 337.498 84.5441C332.105 72.051 329.008 57.342 329.609 38.365C329.308 31.0988 327.411 25.6772 324.313 21.5818C321.212 17.482 316.881 14.6775 311.657 12.6932C302.557 9.23643 290.838 8.2969 278.372 7.2974C276.487 7.14629 274.585 6.9938 272.673 6.83103C258.15 5.59511 243.051 3.76568 230.424 -2.63983Z" fill="#1B5C49"/>
<path fill-rule="evenodd" clip-rule="evenodd" d="M219.938 8.30142C207.112 1.93156 196.789 -9.00407 192.047 -28.418C184.532 -59.1794 165.099 -81.5344 143.214 -96.2046C121.321 -110.88 97.0031 -117.844 79.7741 -117.846L79.7655 -118.636C97.1725 -118.634 121.642 -111.611 143.649 -96.8594C165.663 -82.103 185.242 -59.593 192.814 -28.5975C197.5 -9.41345 207.668 1.32934 220.283 7.59457C232.927 13.8742 248.051 15.6675 262.671 16.8801C264.55 17.036 266.422 17.1823 268.279 17.3274C280.828 18.3082 292.714 19.2371 301.834 22.7298C307.083 24.7403 311.449 27.6106 314.509 31.8533C317.57 36.0974 319.296 41.6762 319.334 49.0534L319.334 49.0668L319.333 49.0802C318.127 68.2955 321.488 82.7419 327.464 94.7745C333.445 106.816 342.055 116.462 351.393 126.071C353.07 127.796 354.77 129.52 356.482 131.256C373.818 148.835 392.373 167.65 400.317 201.785C407.49 212.924 420.429 222.869 435.82 231.904C451.23 240.951 469.049 249.058 485.894 256.527C487.833 257.387 489.759 258.238 491.667 259.081C506.325 265.56 519.923 271.57 530.078 277.308C535.815 280.55 540.482 283.72 543.626 286.857C546.764 289.989 548.449 293.154 548.059 296.37L547.275 296.267C547.62 293.411 546.143 290.479 543.071 287.413C540.004 284.353 535.412 281.225 529.695 277.994C519.577 272.278 506.02 266.285 491.353 259.803C489.446 258.96 487.52 258.109 485.58 257.249C468.737 249.78 450.88 241.657 435.426 232.585C419.98 223.517 406.887 213.475 399.616 202.148L399.579 202.09L399.563 202.023C391.681 168.073 373.264 149.396 355.917 131.803C354.207 130.069 352.508 128.345 350.83 126.619C341.483 117.001 332.797 107.279 326.757 95.1197C320.715 82.9541 317.332 68.3708 318.544 49.0356C318.504 41.7885 316.809 36.3869 313.87 32.3108C310.927 28.2308 306.71 25.4403 301.558 23.4672C292.555 20.0194 280.802 19.0996 268.234 18.1161C266.376 17.9707 264.501 17.824 262.614 17.6675C248.001 16.4554 232.734 14.6569 219.938 8.30142Z" fill="#1B604C"/>
<path fill-rule="evenodd" clip-rule="evenodd" d="M208.514 20.1944C195.428 13.9607 184.931 3.08694 180.278 -16.4208C172.906 -47.3285 153.731 -70.0029 132.044 -84.9288C110.348 -99.86 86.1686 -107.016 68.8379 -106.911L68.8342 -107.706C86.3525 -107.812 110.688 -100.592 132.495 -85.5838C154.309 -70.5705 173.625 -47.7424 181.051 -16.6062C185.648 2.6635 195.982 13.3441 208.857 19.4767C221.761 25.6234 237.236 27.2111 252.125 28.2242C254.005 28.3521 255.875 28.4709 257.73 28.5886C263.209 28.9365 268.549 29.2756 273.569 29.8147C280.29 30.5363 286.469 31.6191 291.685 33.5755C296.904 35.5334 301.18 38.3744 304.062 42.6239C306.945 46.8742 308.403 52.4894 308.069 59.9392L308.069 59.9512L308.067 59.9633C305.966 79.7964 309.475 94.2322 316.027 105.984C322.586 117.749 332.209 126.851 342.397 136C343.329 136.837 344.266 137.674 345.205 138.514C364.779 156.012 385.493 174.528 389.403 212.765C394.613 224.352 406.579 234.495 421.645 243.576C436.724 252.666 454.841 260.655 472.229 267.951C475.643 269.384 479.03 270.79 482.36 272.173C495.975 277.826 508.643 283.086 518.376 288.155C524.432 291.309 529.381 294.404 532.723 297.493C536.057 300.573 537.869 303.722 537.456 306.972L536.667 306.873C537.031 304.01 535.455 301.1 532.183 298.077C528.92 295.061 524.046 292.005 518.008 288.86C508.309 283.808 495.683 278.566 482.071 272.914C478.737 271.53 475.344 270.121 471.921 268.684C454.532 261.387 436.367 253.38 421.234 244.257C406.112 235.142 393.951 224.876 388.652 213.032L388.625 212.974L388.619 212.91C384.757 174.941 364.239 156.598 344.654 139.088C343.722 138.255 342.792 137.424 341.866 136.592C331.68 127.445 321.963 118.265 315.332 106.372C308.695 94.4661 305.161 79.8669 307.276 59.8927C307.602 52.5708 306.165 47.1413 303.404 43.0706C300.641 38.9968 296.523 36.2396 291.405 34.3198C286.283 32.3985 280.181 31.3242 273.483 30.605C268.482 30.068 263.167 29.7305 257.693 29.3828C255.835 29.2649 253.959 29.1457 252.07 29.0172C237.189 28.0047 221.572 26.414 208.514 20.1944Z" fill="#1C644F"/>
<path fill-rule="evenodd" clip-rule="evenodd" d="M197.317 31.8809C183.982 25.7657 173.302 14.9599 168.686 -4.59004C161.374 -35.5622 142.46 -58.5598 121.007 -73.7809C99.5466 -89.0076 75.5784 -96.4295 58.2071 -96.28L58.2053 -97.0769C75.7738 -97.2281 99.9015 -89.7359 121.471 -74.4318C143.049 -59.1221 162.098 -35.9721 169.462 -4.77791C174.02 14.5261 184.532 25.1388 197.653 31.1561C210.805 37.1872 226.595 38.6096 241.715 39.4644C243.594 39.5706 245.463 39.6681 247.315 39.7648C252.903 40.0563 258.336 40.3397 263.423 40.8304C270.197 41.4838 276.392 42.5073 281.564 44.4212C286.74 46.3368 290.917 49.1536 293.618 53.4071C296.318 57.6605 297.511 63.3 296.818 70.7986L296.817 70.8089L296.815 70.8192C293.855 91.2241 297.562 105.606 304.737 117.039C311.925 128.492 322.61 137.017 333.688 145.681C334.02 145.94 334.352 146.2 334.684 146.459C345.434 154.861 356.457 163.477 364.789 175.073C373.383 187.033 379.106 202.148 378.784 223.449C381.967 235.498 392.905 245.861 407.609 255.018C422.318 264.178 440.71 272.079 458.629 279.229C463.366 281.118 468.071 282.956 472.666 284.751C485.436 289.739 497.354 294.394 506.737 298.911C513.115 301.981 518.354 305.002 521.903 308.039C525.44 311.065 527.391 314.189 526.967 317.461L526.176 317.364C526.547 314.506 524.864 311.625 521.383 308.646C517.913 305.677 512.75 302.692 506.387 299.629C497.034 295.127 485.16 290.489 472.4 285.505C467.799 283.708 463.084 281.866 458.33 279.969C440.408 272.819 421.959 264.896 407.184 255.695C392.425 246.503 381.246 235.984 377.999 223.603L377.985 223.551L377.986 223.496C378.316 202.334 372.641 187.371 364.141 175.541C355.876 164.039 344.932 155.484 334.159 147.064C333.838 146.813 333.516 146.561 333.195 146.31C322.131 137.658 311.334 129.054 304.061 117.466C296.777 105.858 293.044 91.2859 296.025 70.7201C296.705 63.345 295.523 57.899 292.944 53.8373C290.364 49.7739 286.354 47.0455 281.283 45.1689C276.207 43.2906 270.093 42.275 263.341 41.6237C258.273 41.1348 252.865 40.8527 247.283 40.5614C245.427 40.4646 243.553 40.3668 241.665 40.2601C226.553 39.4058 210.622 37.982 197.317 31.8809Z" fill="#1E6852"/>
<path fill-rule="evenodd" clip-rule="evenodd" d="M185.986 43.7183C172.531 37.5892 161.661 26.8527 156.811 7.53284C149.127 -23.0722 130.399 -46.3222 109.297 -61.9557C88.1863 -77.5952 64.7327 -85.5884 47.6404 -85.7133L47.6262 -86.4978C64.9218 -86.3714 88.537 -78.2999 109.753 -62.5818C130.978 -46.8578 149.835 -23.4574 157.571 7.36007C162.359 26.4293 173.053 36.9733 186.296 43.0058C199.57 49.0522 215.417 50.5722 230.51 51.5289C232.361 51.6462 234.2 51.7551 236.022 51.8629C241.618 52.1941 247.046 52.5153 252.113 53.0405C258.829 53.7367 264.944 54.7942 270.012 56.7236C275.084 58.6549 279.134 61.4707 281.678 65.6978C284.22 69.9234 285.223 75.5026 284.312 82.8961L284.311 82.9041L284.31 82.9121C280.908 103.464 285.01 117.598 292.895 128.637C300.682 139.539 312.175 147.455 323.929 155.55L324.462 155.917C336.377 164.124 348.498 172.56 357.04 184.502C365.593 196.458 370.54 211.898 368.206 234.083C369.495 246.418 379.375 257.002 393.607 266.332C407.839 275.661 426.318 283.667 444.582 290.87C450.464 293.19 456.325 295.427 462.014 297.598C473.969 302.162 485.16 306.433 494.167 310.566C500.815 313.616 506.307 316.605 510.058 319.601C513.791 322.584 515.906 325.663 515.538 328.89L514.759 328.782C515.077 325.986 513.264 323.155 509.577 320.209C505.908 317.277 500.489 314.321 493.855 311.277C484.872 307.155 473.724 302.901 461.784 298.344C456.09 296.17 450.216 293.928 444.31 291.599C426.043 284.395 407.496 276.363 393.189 266.984C378.898 257.617 368.732 246.837 367.421 234.103L367.417 234.062L367.422 234.022C369.748 211.987 364.838 196.735 356.406 184.948C347.96 173.14 335.961 164.779 324.028 156.559L323.438 156.153C311.727 148.088 300.131 140.102 292.26 129.082C284.239 117.851 280.105 103.501 283.535 82.7731C284.429 75.4946 283.429 70.1125 281.008 66.0896C278.588 62.0667 274.713 59.3461 269.749 57.4559C264.78 55.5639 258.747 54.5148 252.052 53.8208C247.004 53.2976 241.6 52.9778 236.009 52.6469C234.184 52.5389 232.339 52.4297 230.48 52.3118C215.396 51.3557 199.411 49.8334 185.986 43.7183Z" fill="#1F6C55"/>
<path fill-rule="evenodd" clip-rule="evenodd" d="M173.894 56.3346C160.09 50.4159 149.021 39.7547 144.373 20.2276C137.011 -10.703 118.613 -34.3522 97.7038 -50.2429C76.7858 -66.1401 53.3875 -74.2471 36.0617 -74.1337L36.0584 -74.929C53.6 -75.0438 77.1646 -66.8522 98.186 -50.8765C119.216 -34.8944 137.735 -11.0965 145.147 20.0417C149.732 39.3075 160.619 49.7765 174.209 55.6035C187.83 61.4439 204.178 62.625 219.677 63.2526C221.557 63.3288 223.425 63.3968 225.274 63.4642C231.034 63.6739 236.609 63.8769 241.788 64.2974C248.63 64.8528 254.818 65.7898 259.874 67.6387C264.935 69.4895 268.893 72.2662 271.222 76.518C273.549 80.7662 274.214 86.4228 272.825 93.9616L272.824 93.9673L272.822 93.9729C268.228 115.413 272.431 129.599 280.95 140.331C289.075 150.568 301.144 157.693 313.433 164.949C314.07 165.325 314.709 165.702 315.347 166.079C328.255 173.716 341.183 181.676 349.572 193.71C357.977 205.767 361.797 221.863 356.633 245.704C355.633 258.679 364.403 269.508 378.296 278.862C392.185 288.214 411.076 296.008 430.037 302.928C437.082 305.499 444.14 307.951 450.951 310.317C462.445 314.31 473.234 318.057 482.067 321.722C489.102 324.641 494.934 327.522 498.914 330.454C502.873 333.369 505.128 336.43 504.708 339.721L503.919 339.622C504.28 336.796 502.364 333.983 498.442 331.095C494.542 328.223 488.784 325.371 481.761 322.457C472.946 318.8 462.199 315.067 450.724 311.081C443.909 308.714 436.838 306.258 429.763 303.675C410.798 296.754 391.827 288.932 377.851 279.522C363.889 270.122 354.793 259.053 355.842 245.617L355.844 245.59L355.85 245.564C360.986 221.878 357.176 206.011 348.919 194.166C340.643 182.294 327.868 174.412 314.94 166.764C314.288 166.378 313.636 165.993 312.984 165.608C300.735 158.377 288.546 151.182 280.326 140.826C271.641 129.884 267.408 115.449 272.043 93.8141C273.412 86.3841 272.733 80.9333 270.524 76.9013C268.317 72.872 264.548 70.1953 259.599 68.3857C254.646 66.5742 248.543 65.6438 241.722 65.0901C236.562 64.6712 231.013 64.4691 225.258 64.2595C223.406 64.192 221.532 64.1238 219.643 64.0473C204.153 63.42 187.667 62.2399 173.894 56.3346Z" fill="#207158"/>
<path fill-rule="evenodd" clip-rule="evenodd" d="M161.6 69.1697C147.571 63.3329 136.3 52.7454 131.598 33.2665C124.152 2.41535 106.011 -21.5601 85.3953 -37.8116C64.771 -54.07 41.706 -62.5707 24.4467 -62.5187L24.4406 -63.3112C41.9251 -63.3638 65.1597 -54.7704 85.8842 -38.4331C106.617 -22.0889 124.874 2.03306 132.369 33.084C137.005 52.294 148.086 62.6902 161.901 68.4382C175.749 74.1993 192.349 75.2929 208.01 75.8394C209.895 75.9052 211.767 75.9631 213.618 76.0203C219.445 76.2005 225.072 76.3745 230.279 76.769C237.14 77.2888 243.312 78.1934 248.299 80.0158C253.292 81.8403 257.133 84.5986 259.272 88.8445C261.407 93.0841 261.808 98.7349 260.077 106.27L260.076 106.276C254.694 128.189 259.183 142.251 268.404 152.616C276.96 162.233 289.61 168.702 302.445 175.265C303.503 175.805 304.562 176.347 305.62 176.891C319.476 184.014 333.162 191.557 341.455 203.623C349.77 215.721 352.621 232.293 345.005 257.368C341.861 270.8 349.516 281.858 362.967 291.318C376.417 300.777 395.54 308.544 415.016 315.378C423.088 318.21 431.226 320.883 439.038 323.45C450.042 327.065 460.4 330.467 469.013 333.801C476.38 336.654 482.515 339.471 486.717 342.351C490.891 345.211 493.309 348.237 492.9 351.529L492.114 351.428C492.461 348.627 490.423 345.849 486.272 343.004C482.149 340.179 476.087 337.388 468.73 334.54C460.127 331.21 449.812 327.822 438.83 324.215C431.017 321.648 422.867 318.971 414.756 316.125C395.278 309.291 376.061 301.494 362.513 291.966C348.97 282.441 340.971 271.092 344.236 257.171L344.239 257.159L344.243 257.147C351.816 232.219 348.942 215.913 340.803 204.07C332.64 192.193 319.139 184.73 305.26 177.595C304.194 177.047 303.126 176.501 302.058 175.955C289.259 169.412 276.474 162.877 267.813 153.142C258.391 142.55 253.873 128.21 259.306 106.087C261.013 98.6505 260.584 93.2095 258.564 89.1984C256.547 85.1932 252.906 82.5419 248.03 80.76C243.148 78.9761 237.065 78.0776 230.223 77.5593C225.035 77.1663 219.434 76.993 213.611 76.8129C211.756 76.7556 209.879 76.6975 207.986 76.6314C192.335 76.0853 175.597 74.9933 161.6 69.1697Z" fill="#21755C"/>
</svg>
