<svg width="816" height="898" viewBox="0 0 816 898" fill="none" xmlns="http://www.w3.org/2000/svg">
<path fill-rule="evenodd" clip-rule="evenodd" d="M772.151 697.905C796.031 714.555 815.202 740.928 825.71 785.11C842.371 855.163 892.137 898.718 947.698 924.712C1003.27 950.713 1064.56 959.095 1104 958.829L1104.01 960.634C1064.35 960.901 1002.79 952.483 946.93 926.347C891.053 900.205 840.783 856.287 823.954 785.532C813.531 741.708 794.578 715.744 771.116 699.386C747.617 683.001 719.508 676.188 690.619 670.847C685.393 669.88 680.139 668.963 674.884 668.045C622.194 658.841 569.316 649.604 541.045 590.895C525.524 558.661 523.264 523.8 524.619 488.832C525.141 475.371 526.2 461.871 527.25 448.494C527.563 444.5 527.876 440.516 528.173 436.548C529.465 419.278 530.467 402.286 529.993 385.85C529.044 352.986 522.196 322.429 500.039 296.452C477.87 270.46 440.271 248.928 377.555 234.365C251.846 205.174 165.975 165.701 112.395 126.528C85.6052 106.942 66.8644 87.4134 55.2612 69.2598C43.6621 51.1126 39.1609 34.281 40.9695 20.1276L42.7592 20.3514C41.0212 33.9528 45.3259 50.3612 56.7824 68.2852C68.2348 86.2028 86.7996 105.577 113.463 125.07C166.788 164.057 252.412 203.452 377.967 232.607C440.883 247.217 478.899 268.882 501.413 295.278C523.939 321.689 530.842 352.713 531.797 385.793C532.274 402.328 531.265 419.399 529.972 436.678C529.674 440.661 529.36 444.654 529.047 448.654C527.998 462.024 526.943 475.475 526.422 488.897C525.071 523.766 527.341 558.273 542.671 590.109C570.522 647.945 622.449 657.033 675.238 666.27C680.475 667.187 685.721 668.105 690.952 669.072C719.861 674.417 748.309 681.281 772.151 697.905Z" fill="#11362D"/>
<path fill-rule="evenodd" clip-rule="evenodd" d="M1193.42 258.346C1225.74 271.419 1251.77 295.269 1262.6 339.304C1279.74 409.042 1320.31 464.163 1366.39 501.869C1412.48 539.591 1464 559.816 1502.95 559.882L1502.97 561.672C1463.49 561.605 1411.58 541.149 1365.27 503.247C1318.93 465.328 1278.11 409.881 1260.86 339.708C1250.19 296.3 1224.61 272.882 1192.77 260.003C1160.86 247.096 1122.65 244.775 1086.8 243.684C1082.5 243.553 1078.24 243.44 1074.02 243.328C1060.68 242.974 1047.82 242.633 1035.97 241.787C1020.38 240.675 1006.43 238.686 995.288 234.607C984.13 230.523 975.69 224.309 971.278 214.699C966.877 205.112 966.57 192.328 971.262 175.276C978.25 149.886 979.01 129.309 975.227 112.263C971.446 95.2278 963.114 81.6564 951.812 70.289C931.357 49.716 901.24 36.4039 870.777 22.9393C867.488 21.4855 864.195 20.0299 860.909 18.5632C827.308 3.5628 794.522 -12.6009 775.926 -40.0333C757.268 -67.557 753.023 -106.193 775.88 -165.799C781.941 -181.604 781.211 -195.856 775.349 -208.849C769.473 -221.874 758.407 -233.703 743.673 -244.553C714.194 -266.259 670.305 -283.848 624.967 -299.187C604.433 -306.134 583.625 -312.612 563.749 -318.8C561.693 -319.44 559.648 -320.077 557.614 -320.711C535.916 -327.473 515.498 -333.906 498.013 -340.242C480.541 -346.574 465.935 -352.829 455.89 -359.252C450.868 -362.462 446.933 -365.747 444.354 -369.148C441.764 -372.562 440.513 -376.135 440.958 -379.86L442.734 -379.623C442.358 -376.476 443.388 -373.361 445.774 -370.216C448.17 -367.057 451.906 -363.909 456.838 -360.755C466.704 -354.448 481.149 -348.248 498.602 -341.923C516.042 -335.604 536.421 -329.182 558.124 -322.419C560.16 -321.784 562.208 -321.147 564.265 -320.506C584.137 -314.319 604.964 -307.835 625.518 -300.881C670.86 -285.541 714.991 -267.879 744.72 -245.988C759.59 -235.039 770.925 -222.984 776.979 -209.565C783.047 -196.114 783.774 -181.365 777.552 -165.138C754.808 -105.827 759.203 -67.8703 777.403 -41.0228C795.664 -14.084 827.953 1.90178 861.619 16.931C864.908 18.3993 868.21 19.8584 871.513 21.3179C901.906 34.7474 932.358 48.203 953.072 69.0365C964.584 80.6149 973.109 94.485 976.973 111.899C980.836 129.303 980.03 150.184 972.988 175.773C968.35 192.626 968.751 204.929 972.902 213.971C977.043 222.99 984.998 228.944 995.882 232.928C1006.78 236.917 1020.52 238.893 1036.07 240.002C1047.88 240.845 1060.68 241.184 1074.02 241.539C1078.24 241.651 1082.51 241.764 1086.83 241.895C1122.66 242.986 1161.17 245.302 1193.42 258.346Z" fill="#227A5F"/>
<path fill-rule="evenodd" clip-rule="evenodd" d="M782.335 687.248C806.415 703.825 825.784 730.112 836.396 774.194C853.222 844.088 902.73 887.961 957.959 914.344C1013.2 940.734 1074.08 949.576 1113.4 949.432L1113.41 951.231C1073.87 951.376 1012.72 942.494 957.188 915.967C901.644 889.433 851.64 845.196 834.647 774.609C824.123 730.891 804.976 705.014 781.318 688.728C757.621 672.415 729.31 665.659 700.306 660.362C695.158 659.421 689.988 658.528 684.818 657.634C631.885 648.486 579.043 639.353 551.806 580.509L551.803 580.502C537.014 547.836 534.434 513.156 535.056 478.61C535.283 466.053 535.933 453.492 536.577 441.049C536.819 436.382 537.06 431.73 537.277 427.102C538.074 410.124 538.555 393.44 537.611 377.284C535.724 344.983 528.146 314.864 506.068 288.859C483.981 262.842 447.288 240.831 386.942 224.958C265.416 194.566 179.698 154.952 125.2 115.97C97.9518 96.4799 78.4823 77.1286 66.2513 59.1415C54.0264 41.1636 48.9852 24.4744 50.7475 10.35L52.5325 10.5786C50.844 24.1133 55.6538 40.3629 67.7377 58.1335C79.8152 75.8949 99.112 95.1017 126.243 114.509C180.504 153.321 265.995 192.858 387.377 223.214L387.388 223.216C447.939 239.143 485.024 261.295 507.438 287.697C529.862 314.111 537.507 344.666 539.407 377.185C540.356 393.44 539.871 410.202 539.074 427.193C538.856 431.839 538.614 436.501 538.372 441.175C537.729 453.608 537.081 466.123 536.855 478.648C536.234 513.103 538.817 547.462 553.439 579.761C580.26 637.701 632.123 646.682 685.165 655.866C690.314 656.758 695.474 657.652 700.623 658.592C729.645 663.892 758.294 670.698 782.335 687.248Z" fill="#11382E"/>
<path fill-rule="evenodd" clip-rule="evenodd" d="M794.467 674.602C818.875 690.989 838.361 717.28 848.604 761.736C864.845 832.22 914.151 876.362 969.429 902.757C1024.72 929.158 1085.9 937.756 1125.66 937.175L1125.65 938.993C1085.67 939.577 1024.2 930.94 968.621 904.401C913.025 877.855 863.231 833.35 846.832 762.175C836.675 718.093 817.414 692.217 793.434 676.118C769.413 659.99 740.569 653.609 711.097 648.704C705.992 647.855 700.866 647.049 695.744 646.244C671.361 642.412 647.059 638.594 625.43 630.079C599.188 619.749 576.818 602.492 562.778 569.942L562.772 569.928C549.046 536.525 546.578 501.582 546.904 466.996C547.014 455.32 547.441 443.701 547.863 432.195C548.694 409.551 549.51 387.344 547.863 366.005C545.385 333.886 537.33 303.927 515.396 277.834C493.456 251.732 457.544 229.401 399.157 212.717C280.899 182.294 194.683 143.192 138.956 104.65C111.094 85.3799 90.8249 66.2297 77.9898 48.347C65.1638 30.4771 59.698 13.7803 61.6388 -0.541429L63.441 -0.329985C61.5872 13.3511 66.7842 29.5886 79.474 47.2687C92.1546 64.9361 112.254 83.952 140.009 103.148C195.516 141.538 281.525 180.57 399.65 210.958L399.673 210.964C458.273 227.706 494.551 250.184 516.797 276.649C539.053 303.124 547.181 333.492 549.676 365.831C551.331 387.27 550.509 409.661 549.677 432.373C549.256 443.854 548.831 455.416 548.723 466.979C548.398 501.483 550.866 536.134 564.453 569.202C578.275 601.245 600.247 618.199 626.123 628.385C647.551 636.82 671.614 640.603 695.992 644.436C701.131 645.244 706.283 646.054 711.428 646.91C740.916 651.818 770.1 658.243 794.467 674.602Z" fill="#123A30"/>
<path fill-rule="evenodd" clip-rule="evenodd" d="M806.489 662.026C831.037 678.422 850.829 704.539 861.58 748.491C878.625 818.176 927.578 862.743 982.149 889.912C1036.73 917.087 1096.85 926.81 1136.01 926.827L1136.03 928.618C1096.64 928.601 1036.24 918.832 981.366 891.513C926.481 864.188 877.05 819.257 859.84 748.898C849.181 705.323 829.624 679.621 805.506 663.512C781.347 647.375 752.526 640.803 723.2 635.668C718.229 634.798 713.242 633.968 708.261 633.14C683.924 629.094 659.737 625.072 638.304 616.388C612.413 605.899 590.475 588.589 576.916 556.242L576.907 556.22L576.907 556.22C563.797 522.55 560.594 488.182 559.68 454.473C559.404 444.283 559.336 434.165 559.269 424.144C559.114 400.961 558.963 378.304 556.239 356.523C552.345 325.379 543.201 296.167 521.312 270.091C499.418 244.008 464.702 220.976 409.511 202.332C297.08 169.573 211.574 129.776 154.985 91.2477C126.691 71.9843 105.594 53.0166 91.9778 35.3764C78.375 17.7532 72.156 1.34317 73.8585 -12.7607L75.6371 -12.5257C74.0161 0.902215 79.9186 16.8375 93.3913 34.2922C106.851 51.7298 127.783 70.5724 155.981 89.7706C212.372 128.164 297.696 167.893 410.012 200.618L410.03 200.623L410.048 200.629C465.45 219.342 500.501 242.527 522.678 268.948C544.864 295.378 554.096 324.96 558.017 356.321C560.754 378.212 560.907 401.04 561.062 424.274C561.129 434.27 561.197 444.341 561.471 454.445C562.383 488.085 565.578 522.202 578.571 555.577C591.914 587.398 613.443 604.391 638.96 614.729C660.19 623.331 684.137 627.314 708.472 631.362C713.468 632.193 718.48 633.026 723.489 633.903C752.828 639.04 781.985 645.659 806.489 662.026Z" fill="#123C31"/>
<path fill-rule="evenodd" clip-rule="evenodd" d="M820.471 647.451C845.286 663.737 865.305 689.769 876.089 733.693C893.187 803.331 941.841 848.273 996.085 875.84C1050.34 903.414 1110.11 913.556 1149.22 913.612L1149.24 915.402C1109.89 915.346 1049.83 905.152 995.291 877.433C940.734 849.707 891.612 804.4 874.351 734.098C863.662 690.559 843.884 664.945 819.503 648.943C795.077 632.912 765.946 626.469 736.412 621.454C731.517 620.623 726.609 619.831 721.711 619.041C697.12 615.072 672.756 611.14 651.342 602.473C625.589 592.05 604.039 574.76 591.27 542.356L591.264 542.341L591.259 542.327C579.099 508.079 575.593 473.841 573.874 440.55C573.435 432.042 573.112 423.602 572.792 415.24C571.859 390.841 570.952 367.111 567.248 344.33C562.282 313.784 552.297 285.045 530.517 258.924C508.735 232.799 475.096 209.221 422.701 189.106C315.195 155.166 229.748 115.328 171.979 77.0676C143.095 57.938 121.096 39.1802 106.72 21.7227C92.3634 4.2876 85.5039 -11.9837 87.1938 -26.0965L88.9709 -25.86C87.3676 -12.4714 93.8585 3.30659 108.096 20.5962C122.315 37.8635 144.154 56.506 172.953 75.5796C230.545 113.723 315.835 153.5 423.245 187.408L423.271 187.417L423.297 187.426C475.902 207.619 509.844 231.353 531.886 257.789C553.933 284.232 564.014 313.307 569.015 344.066C572.738 366.966 573.651 390.856 574.585 415.287C574.904 423.628 575.225 432.032 575.661 440.482C577.377 473.718 580.872 507.742 592.939 541.734C605.497 573.59 626.628 590.549 651.994 600.815C673.201 609.399 697.322 613.293 721.913 617.263C726.825 618.056 731.757 618.853 736.688 619.69C766.233 624.706 795.7 631.194 820.471 647.451Z" fill="#133E33"/>
<path fill-rule="evenodd" clip-rule="evenodd" d="M834.591 632.697C859.699 648.861 879.953 674.807 890.747 718.727C907.859 788.357 956.197 833.697 1010.11 861.666C1064.05 889.642 1123.48 900.192 1162.57 900.257L1162.6 902.046C1123.25 901.981 1063.52 891.376 1009.31 863.252C955.078 835.121 906.282 789.415 889.009 719.131C878.313 675.605 858.307 650.079 833.637 634.198C808.921 618.287 779.441 611.999 749.665 607.132C744.843 606.344 740.013 605.593 735.194 604.844C710.319 600.977 685.754 597.158 664.358 588.522C638.739 578.181 617.598 560.916 605.688 528.437L605.681 528.419L605.675 528.4C594.543 493.521 590.741 459.396 588.19 426.524C587.701 420.229 587.259 413.982 586.82 407.785C584.964 381.595 583.172 356.304 578.244 332.073C572.155 302.141 561.288 273.89 539.63 247.718C517.971 221.546 485.471 197.394 436.026 175.74C333.711 140.607 248.29 100.763 189.248 62.802C159.728 43.8217 136.764 25.2885 121.582 8.02216C106.425 -9.21557 98.889 -25.3466 100.578 -39.4815L102.355 -39.2446C100.759 -25.8857 107.867 -10.2664 122.919 6.85129C137.945 23.9403 160.753 42.3675 190.201 61.3008C249.089 99.1628 334.378 138.955 436.621 174.06L436.656 174.072L436.69 174.087C486.338 195.826 519.109 220.134 541.002 246.589C562.9 273.05 573.866 301.601 579.997 331.74C584.951 356.098 586.753 381.534 588.608 407.734C589.046 413.919 589.487 420.146 589.974 426.411C592.522 459.245 596.312 493.194 607.373 527.86C619.08 559.768 639.79 576.685 665.007 586.864C686.191 595.415 710.51 599.197 735.387 603.066C740.219 603.817 745.073 604.572 749.929 605.366C779.714 610.235 809.529 616.564 834.591 632.697Z" fill="#144035"/>
<path fill-rule="evenodd" clip-rule="evenodd" d="M850.985 615.631C876.554 631.514 896.973 657.454 907.249 701.898C923.539 772.356 971.578 818.083 1025.55 846.078C1079.54 874.081 1139.38 884.296 1179.08 883.749L1179.08 885.566C1139.11 886.117 1078.96 875.845 1024.69 847.694C970.406 819.537 921.919 773.445 905.478 702.336C895.297 658.3 875.131 632.785 850.008 617.179C824.836 601.542 794.607 595.798 764.17 591.491C759.358 590.81 754.539 590.165 749.735 589.521C724.222 586.106 699.112 582.744 677.538 574.348C651.82 564.338 631.059 547.155 620.405 514.252L620.398 514.23L620.392 514.208C610.757 478.252 607.116 443.768 604.144 410.882C603.848 407.615 603.56 404.364 603.272 401.129C600.667 371.78 598.179 343.76 591.931 317.048C585.001 287.417 573.45 259.43 551.994 233.13C530.541 206.831 499.148 182.173 452.467 159.251C354.707 123.818 268.589 84.6941 207.832 47.4123C177.453 28.7712 153.375 10.5665 137.353 -6.51388C121.364 -23.5582 113.23 -39.6627 115.171 -54.0734L116.972 -53.8606C115.145 -40.2953 122.786 -24.7208 138.688 -7.76886C154.556 9.14708 178.484 27.2557 208.801 45.8591C269.427 83.0604 355.44 122.143 453.157 157.558L453.203 157.574L453.247 157.596C500.12 180.607 531.751 205.417 553.41 231.967C575.074 258.522 586.724 286.773 593.701 316.606C599.979 343.449 602.478 371.601 605.082 400.928C605.369 404.167 605.658 407.421 605.953 410.689C608.924 443.558 612.554 477.901 622.142 513.688C632.607 545.988 652.924 562.807 678.222 572.653C699.577 580.964 724.432 584.294 749.95 587.712C754.768 588.357 759.609 589.006 764.454 589.691C794.897 593.999 825.465 599.778 850.985 615.631Z" fill="#144336"/>
<path fill-rule="evenodd" clip-rule="evenodd" d="M866.678 599.225C892.448 615.097 913.207 640.866 923.947 684.853C940.972 754.583 988.623 800.79 1041.88 829.584C1095.16 858.386 1153.97 869.718 1193.12 869.717L1193.13 871.509C1153.71 871.511 1094.6 860.112 1041.04 831.159C987.473 802.197 939.386 755.625 922.206 685.261C911.567 641.689 891.072 616.344 865.75 600.748C840.377 585.12 810.08 579.227 779.717 574.739C775.031 574.047 770.343 573.388 765.671 572.731C740.14 569.142 715.103 565.623 693.74 557.094C668.381 546.969 648.129 529.764 638.149 497.071L638.141 497.046L638.135 497.02C629.68 462.234 625.301 429.62 621.163 398.803C620.98 397.445 620.799 396.09 620.617 394.739C616.308 362.711 612.081 332.642 603.577 303.987C586.599 246.776 552.554 195.118 466.489 145.173C375.415 107.566 289.95 67.8114 228.07 30.5563C197.128 11.9276 172.04 -6.10129 155.095 -22.9515C138.194 -39.7576 129.188 -55.5951 130.91 -69.8132L132.69 -69.5789C131.075 -56.2508 139.514 -40.9593 156.352 -24.2157C173.145 -7.51647 198.09 10.4244 228.982 29.0234C290.758 66.2156 376.147 105.938 467.214 143.54L467.27 143.564L467.323 143.594C553.792 193.761 588.171 245.789 605.295 303.494C613.844 332.303 618.087 362.507 622.393 394.519C622.574 395.862 622.755 397.209 622.936 398.559C627.075 429.384 631.442 461.906 639.871 496.589C649.668 528.659 669.464 545.478 694.389 555.43C715.53 563.871 740.311 567.356 765.851 570.948C770.535 571.607 775.244 572.269 779.96 572.966C810.326 577.454 840.958 583.383 866.678 599.225Z" fill="#154538"/>
<path fill-rule="evenodd" clip-rule="evenodd" d="M884.623 580.526C910.762 596.231 931.793 621.907 942.477 665.956C959.413 735.782 1006.69 782.462 1059.61 811.688C1112.54 840.921 1171.05 852.645 1210.26 852.576L1210.27 854.372C1170.77 854.441 1111.96 842.646 1058.75 813.258C1005.52 783.861 957.82 736.817 940.732 666.367C930.152 622.745 909.393 597.496 883.707 582.064C857.968 566.6 827.205 560.942 796.501 556.683C791.878 556.042 787.254 555.432 782.65 554.825C756.75 551.41 731.446 548.074 710.103 539.618C684.873 529.622 665.104 512.45 656.196 479.618L656.188 479.59L656.182 479.562C650.766 452.925 646.826 427.953 643.097 404.314C641.629 395.007 640.193 385.907 638.713 376.993C633.469 345.421 627.663 316.169 617.859 288.213C598.277 232.369 562.71 181.594 483.581 128.013C398.603 89.0854 313.073 49.4138 249.628 12.5687C217.901 -5.85649 191.649 -23.6019 173.742 -40.2225C164.788 -48.5332 157.889 -56.5913 153.44 -64.3424C148.989 -72.0965 146.962 -79.593 147.841 -86.7435L149.622 -86.5119C148.806 -79.8628 150.672 -72.7604 154.996 -65.2277C159.321 -57.6921 166.079 -49.7753 174.958 -41.5343C192.716 -25.0514 218.831 -7.38581 250.521 11.0178C313.893 47.8205 399.368 87.4666 484.387 126.413L484.455 126.444L484.518 126.487C563.967 180.27 599.819 231.355 619.553 287.629C629.41 315.739 635.237 345.117 640.484 376.712C641.969 385.652 643.407 394.769 644.876 404.085C648.602 427.702 652.531 452.604 657.936 479.188C666.675 511.368 685.976 528.132 710.754 537.949C731.87 546.315 756.912 549.619 782.825 553.038C787.439 553.647 792.082 554.259 796.735 554.904C827.439 559.163 858.537 564.854 884.623 580.526Z" fill="#16483A"/>
<path fill-rule="evenodd" clip-rule="evenodd" d="M902.599 561.758C929.125 577.286 950.444 602.862 961.077 646.97C977.932 716.884 1024.81 764.066 1077.36 793.754C1129.93 823.451 1188.1 835.599 1227.36 835.469L1227.38 837.267C1187.81 837.399 1129.32 825.173 1076.48 795.319C1023.62 765.457 976.331 717.912 959.329 647.384C948.802 603.715 927.764 578.569 901.695 563.309C875.571 548.017 844.321 542.604 813.262 538.581C808.699 537.99 804.138 537.429 799.599 536.871C773.319 533.638 747.745 530.493 726.434 522.115C713.912 517.192 702.817 510.45 693.877 500.792C684.934 491.13 678.187 478.592 674.304 462.136L674.297 462.105L674.292 462.074C672.773 452.776 671.326 443.733 669.917 434.92C659.803 371.673 651.594 320.343 631.951 272.552C609.6 218.173 572.422 168.338 500.635 110.881C470.826 95.5624 439.989 80.3484 409.641 65.3753C360.068 40.9174 311.797 17.102 271.434 -5.47752C238.879 -23.6885 211.397 -41.1328 192.475 -57.5082C183.013 -65.6959 175.656 -73.6468 170.877 -81.3253C166.096 -89.0061 163.86 -96.4745 164.753 -103.657L166.538 -103.428C165.712 -96.7859 167.758 -89.7333 172.402 -82.2708C177.048 -74.806 184.259 -66.9912 193.648 -58.8659C212.427 -42.6151 239.777 -25.2431 272.307 -7.04591C312.639 15.5159 360.825 39.2891 410.359 63.7273C440.743 78.7179 471.635 93.9587 501.532 109.324L501.613 109.365L501.684 109.422C573.696 167.046 611.113 217.129 633.614 271.874C653.342 319.874 661.586 371.429 671.693 434.645C673.101 443.45 674.545 452.481 676.061 461.76C679.882 477.934 686.493 490.173 695.195 499.573C703.905 508.984 714.749 515.592 727.086 520.442C748.165 528.728 773.471 531.843 799.767 535.08C804.316 535.64 808.895 536.203 813.486 536.798C844.543 540.82 876.127 546.262 902.599 561.758Z" fill="#164B3D"/>
<path fill-rule="evenodd" clip-rule="evenodd" d="M920.121 543.404C947.017 558.785 968.654 584.24 979.348 628.294C996.298 698.121 1042.76 745.828 1094.85 776.081C1146.95 806.342 1204.61 819.094 1243.8 819.034L1243.81 820.829C1204.31 820.89 1146.33 808.053 1093.95 777.631C1041.56 747.201 994.7 699.132 977.604 628.705C967.019 585.102 945.674 560.078 919.239 544.961C892.748 529.812 861.075 524.567 829.737 520.7C825.243 520.145 820.754 519.619 816.289 519.096C789.695 515.978 763.923 512.957 742.699 504.621C730.278 499.742 719.367 493.029 710.724 483.378C702.077 473.723 695.743 461.174 692.41 444.69L692.403 444.657L692.399 444.624C682.578 367.043 670.718 310.281 645.335 257.524C619.964 204.792 581.051 155.993 517.019 94.4055C473.088 68.6588 424.022 43.8196 377.239 20.1362C347.692 5.17824 319.055 -9.31868 293.198 -23.2922C259.823 -41.3283 231.084 -58.4917 211.104 -74.619C201.114 -82.6823 193.274 -90.5184 188.139 -98.1099C183.003 -105.703 180.527 -113.123 181.409 -120.312L183.191 -120.08C182.38 -113.472 184.632 -106.488 189.623 -99.1077C194.616 -91.7261 202.304 -84.0205 212.225 -76.0124C232.066 -59.9969 260.679 -42.8993 294.042 -24.87C319.805 -10.9473 348.404 3.53145 377.938 18.4835C424.806 42.2115 474.029 67.1316 518.011 92.9131L518.103 92.9674L518.181 93.0419C582.332 154.735 621.438 203.727 646.951 256.756C672.46 309.775 684.349 366.762 694.175 444.38C697.455 460.575 703.659 472.808 712.057 482.186C720.465 491.574 731.114 498.147 743.344 502.951C764.331 511.194 789.831 514.185 816.445 517.307C820.918 517.832 825.423 518.361 829.944 518.919C861.277 522.785 893.282 528.056 920.121 543.404Z" fill="#174E3F"/>
<path fill-rule="evenodd" clip-rule="evenodd" d="M941.744 520.911C969.077 536.086 991.03 561.431 1001.64 605.574C1018.47 675.537 1064.48 723.801 1116.18 754.551C1167.89 785.311 1225.21 798.502 1264.49 798.345L1264.5 800.145C1224.89 800.302 1167.24 787.019 1115.26 756.097C1063.26 725.166 1016.86 676.541 999.894 605.99C989.392 562.312 967.741 537.4 940.874 522.483C913.948 507.533 881.717 502.58 849.967 498.995C845.521 498.493 841.083 498.018 836.67 497.546C809.652 494.654 783.58 491.863 762.401 483.63C750.054 478.83 739.317 472.165 730.989 462.517C722.658 452.864 716.784 440.276 714.084 423.706L714.079 423.672L714.076 423.638C707.272 344.119 691.086 289.585 662.666 238.472C634.608 188.009 594.613 140.85 539.819 76.241L537.643 73.6752C488.47 40.4837 427.142 9.65386 370.372 -18.8842C352.635 -27.8004 335.344 -36.4927 319.007 -44.9635C284.705 -62.7494 254.597 -79.5678 233.491 -95.4181C222.939 -103.343 214.592 -111.058 209.095 -118.568C203.598 -126.078 200.892 -133.469 201.796 -140.699L203.582 -140.47C202.756 -133.866 205.2 -126.933 210.546 -119.628C215.893 -112.323 224.081 -104.732 234.569 -96.8558C255.542 -81.105 285.53 -64.3463 319.832 -46.5604C336.121 -38.1142 353.38 -29.4382 371.096 -20.5327C427.926 8.03506 489.454 38.9648 538.75 72.2544L538.853 72.324L541.283 75.1894C595.995 139.702 636.093 186.981 664.238 237.601C692.802 288.974 709.043 343.757 715.866 423.455C718.523 439.73 724.274 451.985 732.35 461.343C740.436 470.712 750.898 477.23 763.049 481.953C783.985 490.091 809.778 492.855 836.821 495.752C841.24 496.225 845.693 496.702 850.164 497.207C881.907 500.791 914.47 505.767 941.744 520.911Z" fill="#185141"/>
<path fill-rule="evenodd" clip-rule="evenodd" d="M963.288 498.455C991.068 513.426 1013.36 538.65 1023.92 582.853C1040.66 652.906 1086.21 701.754 1137.47 733.05C1188.75 764.355 1245.67 778.052 1285 777.834L1285.01 779.636C1245.33 779.856 1188.08 766.058 1136.53 734.588C1084.97 703.108 1039.05 653.901 1022.17 583.272C1011.72 539.549 989.743 514.759 962.433 500.041C935.062 485.291 902.271 480.618 870.116 477.304C865.716 476.85 861.326 476.422 856.964 475.997C829.531 473.321 803.175 470.751 782.065 462.618C769.802 457.893 759.252 451.274 751.254 441.627C743.254 431.976 737.857 419.353 735.809 402.704L735.805 402.67L735.804 402.635C732.096 321.135 711.333 269.009 679.689 219.649C664.187 195.467 646.073 171.948 626.043 145.942L624.744 144.255C604.227 117.614 581.746 88.3315 558.088 53.1084C508.618 13.8635 437.728 -20.9883 373.762 -52.4367C363.979 -57.2464 354.358 -61.9766 345 -66.6308C309.74 -84.1669 278.206 -100.631 255.923 -116.192C244.782 -123.971 235.904 -131.558 230.026 -138.978C224.148 -146.397 221.193 -153.75 222.113 -161.015L223.901 -160.79C223.066 -154.196 225.716 -147.321 231.438 -140.098C237.159 -132.876 245.874 -125.407 256.955 -117.669C279.113 -102.196 310.531 -85.787 345.803 -68.2445C355.145 -63.5982 364.757 -58.873 374.536 -54.0656C438.527 -22.6068 509.677 12.3717 559.319 51.7837L559.428 51.8707L559.507 51.987C583.157 87.2086 605.633 116.485 626.173 143.156L627.496 144.874C647.506 170.855 665.662 194.428 681.207 218.676C713.005 268.278 733.875 320.7 737.602 402.518C739.619 418.867 744.902 431.14 752.642 440.477C760.391 449.825 770.653 456.29 782.713 460.936C803.574 468.973 829.646 471.518 857.108 474.199C861.476 474.625 865.878 475.055 870.301 475.511C902.448 478.825 935.569 483.516 963.288 498.455Z" fill="#195544"/>
<path fill-rule="evenodd" clip-rule="evenodd" d="M984.896 475.896C1013.14 490.652 1035.79 515.749 1046.3 560.013C1062.95 630.16 1108.01 679.622 1158.82 711.49C1209.63 743.369 1266.13 757.598 1305.52 757.315L1305.52 759.12C1265.77 759.406 1208.94 745.066 1157.85 713.02C1106.75 680.964 1061.33 631.145 1044.54 560.436C1034.15 516.665 1011.83 492.005 984.055 477.497C956.218 462.956 922.84 458.579 890.26 455.548C885.9 455.143 881.552 454.761 877.234 454.382C849.373 451.938 822.729 449.6 801.701 441.574C789.526 436.928 779.171 430.356 771.52 420.709C763.865 411.058 758.97 398.396 757.605 381.664L757.602 381.63L757.602 381.596C757.137 298.008 731.582 248.424 696.553 200.907C687.082 188.059 676.905 175.349 666.338 162.152C637.844 126.566 606.514 87.4372 578.54 32.5201C553.985 9.04424 520.345 -12.5292 483.749 -32.5597C451.033 -50.4661 416.001 -67.1151 383.044 -82.7779C379.085 -84.6595 375.155 -86.5269 371.264 -88.3805C335 -105.653 301.971 -121.742 278.454 -136.996C266.697 -144.622 257.263 -152.072 250.985 -159.398C244.711 -166.718 241.493 -174.029 242.429 -181.332L244.22 -181.109C243.376 -174.528 246.24 -167.713 252.358 -160.575C258.471 -153.442 267.739 -146.101 279.44 -138.511C302.84 -123.334 335.756 -107.295 372.045 -90.0107C375.936 -88.1573 379.866 -86.2898 383.826 -84.4075C416.777 -68.7479 451.856 -52.0764 484.62 -34.1438C521.316 -14.0589 555.165 7.63871 579.901 31.3192L580.011 31.4246L580.08 31.5604C607.981 86.3715 639.169 125.322 667.657 160.901C678.25 174.13 688.469 186.893 698.008 199.832C733.195 247.565 758.933 297.503 759.407 381.545C760.753 397.975 765.547 410.269 772.936 419.584C780.333 428.911 790.384 435.321 802.35 439.887C823.123 447.816 849.476 450.13 877.371 452.581C881.693 452.96 886.052 453.343 890.434 453.751C923.003 456.781 956.71 461.173 984.896 475.896Z" fill="#1A5846"/>
<path fill-rule="evenodd" clip-rule="evenodd" d="M1006.19 453.613C1034.89 468.175 1057.91 493.133 1068.44 537.382C1085.14 607.5 1129.7 657.592 1179.98 690.103C1230.27 722.626 1286.23 737.51 1325.58 737.253L1325.59 739.057C1285.85 739.316 1229.55 724.311 1179 691.619C1128.42 658.916 1083.51 608.469 1066.69 537.803C1056.28 494.063 1033.6 469.543 1005.37 455.223C977.076 440.87 943.155 436.733 910.201 433.929C905.882 433.561 901.578 433.216 897.305 432.874C869.067 430.613 842.19 428.461 821.288 420.521C809.223 415.938 799.08 409.406 791.785 399.763C784.487 390.116 780.097 377.432 779.408 360.65L779.406 360.617L779.407 360.584C780.767 317.765 773.783 284.657 761.661 256.577C749.534 228.485 732.247 205.38 712.929 182.574C706.86 175.409 700.59 168.274 694.219 161.024C660.077 122.17 623.043 80.027 598.543 12.3682C578.083 -12.0205 546.527 -34.0598 510.718 -54.2754C474.86 -74.518 434.819 -92.8889 397.528 -109.942L395.701 -110.777C359.134 -127.498 325.307 -142.965 300.928 -157.673C288.538 -165.148 278.53 -172.461 271.833 -179.684C265.144 -186.898 261.64 -194.155 262.574 -201.477L264.364 -201.253C263.528 -194.702 266.623 -187.959 273.157 -180.912C279.683 -173.873 289.523 -166.663 301.863 -159.218C326.152 -144.564 359.901 -129.132 396.531 -112.382L398.281 -111.582C435.56 -94.535 475.672 -76.1333 511.607 -55.8467C547.531 -35.5666 579.361 -13.3597 600.029 11.3301L600.131 11.452L600.185 11.6015C624.561 79.0039 661.383 120.913 695.54 159.789C701.921 167.052 708.21 174.209 714.306 181.406C733.664 204.259 751.086 227.524 763.317 255.858C775.551 284.196 782.574 317.56 781.211 360.604C781.894 377.086 786.197 389.383 793.224 398.673C800.259 407.972 810.083 414.333 821.932 418.834C842.573 426.675 869.154 428.806 897.431 431.073C901.706 431.416 906.02 431.762 910.358 432.131C943.299 434.934 977.547 439.084 1006.19 453.613Z" fill="#1B5C49"/>
<path fill-rule="evenodd" clip-rule="evenodd" d="M1029.98 428.796C1059.07 443.244 1082.48 468.049 1093.24 512.085C1110.28 581.859 1154.36 632.566 1204 665.842C1253.66 699.129 1308.82 714.926 1347.9 714.93L1347.92 716.722C1308.44 716.718 1252.93 700.787 1203.02 667.327C1153.08 633.856 1108.67 582.797 1091.5 512.492C1080.87 468.977 1057.81 444.61 1029.19 430.399C1000.51 416.155 966.207 412.088 933.046 409.337C928.784 408.984 924.539 408.652 920.326 408.323C891.862 406.098 864.901 403.991 844.215 396.068C832.308 391.508 822.405 384.998 815.465 375.374C808.522 365.747 804.607 353.093 804.52 336.36L804.52 336.33L804.522 336.299C807.258 292.714 799.634 259.946 786.079 232.653C772.513 205.341 752.983 183.459 731.801 161.664C727.998 157.751 724.142 153.841 720.259 149.904C680.936 110.029 638.849 67.3538 620.83 -10.0728C604.559 -35.339 575.211 -57.8974 540.3 -78.3922C505.347 -98.9117 464.929 -117.301 426.72 -134.242C422.322 -136.192 417.953 -138.123 413.624 -140.036C380.376 -154.731 349.534 -168.363 326.5 -181.378C313.485 -188.732 302.901 -195.922 295.77 -203.039C288.652 -210.142 284.83 -217.321 285.713 -224.616L287.492 -224.382C286.709 -217.905 290.061 -211.254 297.029 -204.3C303.985 -197.359 314.4 -190.264 327.368 -182.936C350.318 -169.968 381.07 -156.377 414.337 -141.673C418.663 -139.761 423.032 -137.83 427.431 -135.879C465.636 -118.94 506.141 -100.513 541.194 -79.9352C576.228 -59.368 605.927 -36.5892 622.419 -10.8975L622.504 -10.7655L622.54 -10.6128C640.419 66.3934 682.193 108.758 721.54 148.663C725.419 152.597 729.274 156.506 733.08 160.422C754.281 182.238 773.983 204.289 787.682 231.87C801.388 259.465 809.061 292.543 806.312 336.4C806.402 352.839 810.246 365.091 816.914 374.336C823.588 383.591 833.155 389.921 844.84 394.396C865.26 402.216 891.921 404.303 920.429 406.534C924.642 406.863 928.895 407.196 933.175 407.551C966.321 410.301 1000.95 414.38 1029.98 428.796Z" fill="#1B604C"/>
<path fill-rule="evenodd" clip-rule="evenodd" d="M1055.88 401.819C1085.57 415.959 1109.38 440.623 1119.93 484.872C1136.65 554.978 1180.15 606.41 1229.34 640.265C1278.55 674.133 1333.39 690.364 1372.71 690.127L1372.71 691.93C1332.98 692.169 1277.78 675.793 1228.32 641.751C1178.83 607.697 1135.02 555.917 1118.18 485.292C1107.75 441.584 1084.31 417.358 1055.11 403.447C1025.84 389.505 990.735 385.904 956.964 383.606C952.7 383.316 948.457 383.046 944.249 382.779C931.821 381.99 919.709 381.221 908.323 379.998C893.079 378.361 879.062 375.905 867.232 371.468C855.393 367.027 845.694 360.583 839.157 350.944C832.619 341.303 829.312 328.566 830.068 311.668L830.069 311.641L830.072 311.614C834.839 266.627 826.88 233.883 812.019 207.227C797.14 180.54 775.313 159.896 752.203 139.142C750.089 137.244 747.965 135.345 745.834 133.441C701.435 93.7516 654.452 51.752 645.582 -34.9794C633.765 -61.2624 606.623 -84.2679 572.45 -104.867C538.247 -125.485 497.153 -143.605 457.712 -160.155C449.968 -163.405 442.287 -166.594 434.734 -169.73C403.851 -182.554 375.116 -194.485 353.04 -205.983C339.304 -213.137 328.077 -220.157 320.496 -227.163C312.935 -234.151 308.825 -241.292 309.762 -248.664L311.55 -248.439C310.725 -241.946 314.3 -235.346 321.721 -228.487C329.123 -221.647 340.179 -214.715 353.874 -207.582C375.874 -196.124 404.512 -184.233 435.387 -171.412C442.949 -168.272 450.646 -165.077 458.412 -161.818C497.853 -145.267 539.056 -127.104 573.382 -106.412C607.681 -85.7362 635.266 -62.4494 647.287 -35.5857L647.346 -35.4533L647.361 -35.3089C656.121 50.8153 702.66 92.4218 747.084 132.138C749.199 134.028 751.308 135.914 753.409 137.8C776.513 158.549 798.553 179.369 813.594 206.348C828.65 233.352 836.664 266.467 831.868 311.774C831.129 328.381 834.388 340.697 840.65 349.93C846.916 359.171 856.258 365.425 867.867 369.779C879.486 374.137 893.325 376.574 908.517 378.205C919.861 379.424 931.918 380.189 944.335 380.978C948.549 381.245 952.805 381.515 957.088 381.807C990.843 384.104 1026.27 387.712 1055.88 401.819Z" fill="#1C644F"/>
<path fill-rule="evenodd" clip-rule="evenodd" d="M1081.28 375.311C1111.53 389.182 1135.76 413.692 1146.22 458.036C1162.81 528.289 1205.71 580.454 1254.37 614.979C1303.05 649.517 1357.42 666.351 1396.82 666.012L1396.82 667.82C1356.97 668.163 1302.25 651.169 1253.32 616.455C1204.38 581.729 1161.17 529.219 1144.47 458.463C1134.13 414.676 1110.28 390.604 1080.52 376.955C1050.69 363.275 1014.87 360.049 980.578 358.11C976.315 357.869 972.076 357.648 967.875 357.429C955.201 356.767 942.877 356.124 931.338 355.011C915.973 353.529 901.922 351.208 890.19 346.867C878.449 342.522 868.975 336.132 862.849 326.484C856.724 316.837 854.019 304.045 855.591 287.036L855.593 287.013L855.596 286.989C862.31 240.706 853.903 208.085 837.628 182.151C821.324 156.172 797.088 136.837 771.958 117.184C771.207 116.596 770.454 116.007 769.701 115.419C745.317 96.3604 720.314 76.8171 701.414 50.5146C681.921 23.3867 668.94 -10.8974 669.671 -59.2132C662.449 -86.5428 637.639 -110.05 604.288 -130.819C570.923 -151.598 529.206 -169.519 488.561 -185.735C477.816 -190.022 467.145 -194.191 456.723 -198.262C427.756 -209.576 400.723 -220.136 379.442 -230.38C364.973 -237.344 353.09 -244.196 345.04 -251.084C337.018 -257.949 332.593 -265.035 333.555 -272.457L335.347 -272.236C334.507 -265.753 338.324 -259.218 346.221 -252.461C354.09 -245.728 365.802 -238.957 380.234 -232.009C401.449 -221.798 428.384 -211.276 457.325 -199.972C467.761 -195.895 478.457 -191.717 489.24 -187.415C529.891 -171.196 571.739 -153.226 605.251 -132.355C638.729 -111.507 664.086 -87.6461 671.451 -59.5636L671.482 -59.4443L671.48 -59.3208C670.731 -11.3203 683.603 22.6203 702.884 49.4536C721.631 75.544 746.455 94.9473 770.89 114.047C771.62 114.617 772.349 115.187 773.078 115.757C798.173 135.383 822.665 154.897 839.161 181.184C855.684 207.512 864.151 240.566 857.388 287.214C855.846 303.943 858.528 316.296 864.377 325.508C870.229 334.725 879.324 340.914 890.827 345.171C902.34 349.431 916.208 351.735 931.523 353.212C943.019 354.321 955.286 354.961 967.949 355.622C972.157 355.841 976.409 356.063 980.691 356.305C1014.97 358.243 1051.1 361.472 1081.28 375.311Z" fill="#1E6852"/>
<path fill-rule="evenodd" clip-rule="evenodd" d="M1106.99 348.461C1137.51 362.363 1162.16 386.716 1173.16 430.539C1190.59 499.959 1233.07 552.696 1280.94 588.156C1328.82 623.631 1382.02 641.761 1420.79 642.045L1420.82 643.824C1381.59 643.537 1328.02 625.229 1279.9 589.577C1231.76 553.91 1188.99 500.833 1171.44 430.931C1160.58 387.677 1136.32 363.76 1106.28 350.077C1076.17 336.362 1040.23 332.915 1005.99 330.745C1001.8 330.479 997.623 330.232 993.49 329.987C980.798 329.236 968.485 328.507 956.993 327.316C941.759 325.737 927.888 323.338 916.393 318.962C904.888 314.581 895.701 308.194 889.932 298.606C884.165 289.021 881.892 276.366 883.956 259.596L883.958 259.578L883.961 259.56C891.679 212.943 882.373 180.884 864.489 155.844C846.827 131.115 820.757 113.16 794.095 94.798L792.888 93.9667C765.861 75.3502 738.368 56.2154 718.991 29.1273C699.592 2.00812 688.369 -33.0136 693.664 -83.3339C690.741 -111.313 668.331 -135.32 636.048 -156.482C603.767 -177.643 561.852 -195.803 520.424 -212.142C507.083 -217.404 493.787 -222.479 480.885 -227.403C453.767 -237.753 428.384 -247.441 407.952 -256.816C392.874 -263.734 380.415 -270.515 371.909 -277.311C363.441 -284.076 358.643 -291.06 359.478 -298.38L361.246 -298.134C360.523 -291.794 364.636 -285.371 372.998 -278.69C381.322 -272.04 393.614 -265.334 408.66 -258.43C429.037 -249.081 454.324 -239.429 481.405 -229.093C494.322 -224.164 507.646 -219.078 521.041 -213.795C562.476 -197.453 604.545 -179.235 636.997 -157.963C669.412 -136.714 692.471 -112.263 695.444 -83.3797L695.453 -83.2873L695.444 -83.1954C690.166 -33.2153 701.304 1.38048 720.429 28.1166C739.588 54.9001 766.804 73.8649 793.872 92.5095L795.21 93.4315C821.772 111.724 848.075 129.838 865.928 154.834C884.124 180.31 893.5 212.859 885.72 259.875C883.69 276.384 885.961 288.592 891.451 297.717C896.941 306.842 905.729 313.013 916.99 317.301C928.261 321.592 941.945 323.972 957.132 325.546C968.581 326.733 980.838 327.458 993.519 328.209C997.659 328.454 1001.84 328.702 1006.06 328.969C1040.28 331.138 1076.54 334.591 1106.99 348.461Z" fill="#1F6C55"/>
<path fill-rule="evenodd" clip-rule="evenodd" d="M1134.41 319.845C1165.73 333.27 1190.83 357.452 1201.38 401.745C1218.08 471.903 1259.8 525.546 1307.23 561.59C1354.68 597.648 1407.75 616.037 1447.05 615.78L1447.06 617.584C1407.27 617.844 1353.82 599.264 1306.14 563.027C1258.44 526.775 1216.43 472.796 1199.62 402.167C1189.22 358.467 1164.53 334.72 1133.7 321.503C1102.8 308.256 1065.72 305.577 1030.57 304.153C1026.3 303.981 1022.06 303.826 1017.87 303.673C1004.81 303.198 992.16 302.737 980.413 301.783C964.894 300.524 950.858 298.398 939.39 294.205C927.91 290.007 918.932 283.708 913.65 274.064C908.372 264.428 906.864 251.598 910.015 234.498L910.017 234.485L910.02 234.472C920.442 185.841 910.906 153.663 891.585 129.32C873.155 106.101 845.779 89.9382 817.904 73.481C816.459 72.6274 815.011 71.7729 813.564 70.9167C784.284 53.595 754.961 35.5394 735.933 8.24276C716.868 -19.1052 708.203 -55.6149 719.917 -109.692C722.184 -139.123 702.291 -163.686 670.778 -184.904C639.274 -206.115 596.425 -223.794 553.418 -239.491C537.437 -245.324 521.427 -250.885 505.98 -256.251C479.908 -265.307 455.435 -273.808 435.4 -282.121C419.443 -288.742 406.215 -295.277 397.186 -301.926C388.208 -308.538 383.091 -315.481 384.044 -322.946L385.833 -322.722C385.016 -316.313 389.36 -309.932 398.258 -303.38C407.104 -296.865 420.165 -290.397 436.095 -283.788C456.088 -275.492 480.466 -267.024 506.493 -257.984C521.951 -252.615 537.991 -247.043 554.04 -241.186C597.055 -225.486 640.086 -207.745 671.788 -186.401C703.458 -165.078 724.089 -139.972 721.71 -109.495L721.706 -109.434L721.693 -109.374C710.043 -55.6493 718.684 -19.6587 737.413 7.20887C756.186 34.138 785.162 52.0166 814.485 69.3635C815.964 70.2385 817.444 71.1121 818.924 71.9855C846.707 88.3864 874.355 104.707 892.999 128.197C912.699 153.016 922.3 185.759 911.787 234.832C908.683 251.685 910.223 264.049 915.232 273.195C920.238 282.334 928.789 288.406 940.013 292.51C951.249 296.619 965.091 298.729 980.563 299.985C992.266 300.936 1004.85 301.394 1017.91 301.869C1022.11 302.022 1026.36 302.177 1030.64 302.351C1065.78 303.774 1103.17 306.45 1134.41 319.845Z" fill="#207158"/>
<path fill-rule="evenodd" clip-rule="evenodd" d="M1162.3 290.731C1194.12 303.97 1219.69 327.985 1230.35 372.168C1247.24 442.146 1288.39 496.529 1335.15 533.391C1381.93 570.269 1434.25 589.551 1473.4 589.433L1473.41 591.231C1433.75 591.35 1381.05 571.858 1334.04 534.801C1287.01 497.728 1245.6 443.013 1228.6 372.582C1218.09 329.009 1192.95 305.428 1161.62 292.39C1130.21 279.322 1092.55 276.842 1057.03 275.602C1052.76 275.453 1048.51 275.321 1044.31 275.192C1031.09 274.783 1018.33 274.388 1006.52 273.493C990.956 272.314 976.956 270.262 965.645 266.129C954.32 261.99 945.606 255.734 940.756 246.103C935.913 236.487 935.004 223.669 938.929 206.578L938.932 206.565C951.14 156.859 940.958 124.965 920.041 101.453C900.634 79.6384 871.941 64.9666 842.829 50.0808C840.429 48.8539 838.027 47.6257 835.627 46.3919C804.197 30.2336 773.154 13.1257 754.343 -14.2436C735.483 -41.6851 729.018 -79.2735 746.292 -136.151C753.423 -166.619 736.058 -191.701 705.549 -213.158C675.042 -234.613 631.664 -252.231 587.49 -267.731C569.18 -274.156 550.721 -280.22 533.002 -286.04C508.04 -294.241 484.548 -301.958 465.011 -309.521C448.299 -315.99 434.385 -322.38 424.852 -328.913C415.385 -335.401 409.901 -342.265 410.828 -349.731L412.612 -349.501C411.823 -343.148 416.446 -336.848 425.863 -330.395C435.215 -323.986 448.964 -317.657 465.653 -311.197C485.165 -303.644 508.564 -295.958 533.473 -287.775C551.195 -281.954 569.681 -275.882 588.078 -269.427C632.259 -253.925 675.848 -236.239 706.578 -214.626C737.297 -193.022 755.441 -167.281 748.035 -135.704L748.029 -135.676L748.02 -135.648C730.842 -79.1058 737.36 -42.1198 755.823 -15.257C774.338 11.6823 804.963 28.6098 836.443 44.7939C838.861 46.0369 841.284 47.2756 843.707 48.5142C872.738 63.3552 901.737 78.1796 921.382 100.261C942.754 124.285 953.002 156.812 940.679 206.994C936.807 223.861 937.779 236.202 942.361 245.301C946.936 254.385 955.194 260.399 966.255 264.441C977.328 268.487 991.127 270.525 1006.65 271.701C1018.41 272.592 1031.12 272.985 1044.33 273.394C1048.53 273.524 1052.79 273.656 1057.09 273.805C1092.59 275.044 1130.55 277.521 1162.3 290.731Z" fill="#21755C"/>
</svg>
